<?xml version="1.0" encoding="UTF-8"?>
<!DOCTYPE svg PUBLIC "-//W3C//DTD SVG 1.1//EN" "http://www.w3.org/Graphics/SVG/1.1/DTD/svg11.dtd">
<svg xmlns="http://www.w3.org/2000/svg" version="1.1" width="256px" height="256px" style="shape-rendering:geometricPrecision; text-rendering:geometricPrecision; image-rendering:optimizeQuality; fill-rule:evenodd; clip-rule:evenodd" xmlns:xlink="http://www.w3.org/1999/xlink">
<g><path style="opacity:1" fill="#ebeaf1" d="M -0.5,-0.5 C 84.8333,-0.5 170.167,-0.5 255.5,-0.5C 255.5,61.8333 255.5,124.167 255.5,186.5C 240.195,191.982 225.195,198.316 210.5,205.5C 214.369,202.298 217.036,198.298 218.5,193.5C 220.775,187.85 221.775,181.85 221.5,175.5C 221.455,165.098 219.788,155.098 216.5,145.5C 214.864,138.424 212.53,131.591 209.5,125C 211.167,124.667 212.833,124.333 214.5,124C 213.956,123.283 213.289,122.783 212.5,122.5C 212.027,121.094 211.027,120.427 209.5,120.5C 211.833,117.167 214.167,113.833 216.5,110.5C 220.415,109.733 224.415,109.233 228.5,109C 230.852,108.76 232.852,107.927 234.5,106.5C 243.73,103.93 250.063,98.2638 253.5,89.5C 254.309,84.4465 252.309,80.4465 247.5,77.5C 246.415,75.4131 244.749,74.0798 242.5,73.5C 237.946,70.3546 232.946,67.8546 227.5,66C 220.464,63.9324 213.464,61.7657 206.5,59.5C 205.831,57.3691 205.165,55.3691 204.5,53.5C 204.382,50.3117 203.549,47.3117 202,44.5C 200.938,45.0968 199.772,45.4302 198.5,45.5C 191.963,43.6261 185.297,42.4595 178.5,42C 178.043,41.586 177.709,41.086 177.5,40.5C 178.847,37.8068 180.18,35.1401 181.5,32.5C 182.433,29.6298 184.1,27.2964 186.5,25.5C 188.911,28.3368 191.578,30.0035 194.5,30.5C 189.019,23.3457 182.352,17.6791 174.5,13.5C 168.473,10.0483 162.139,7.3816 155.5,5.5C 150.494,3.44071 145.16,2.44071 139.5,2.5C 130.232,1.48305 121.232,2.81638 112.5,6.5C 104.968,8.26588 98.3015,11.5992 92.5,16.5C 88.8333,18.1667 86.1667,20.8333 84.5,24.5C 78.6684,31.1616 74.6684,38.8282 72.5,47.5C 71.1682,51.2639 70.3349,55.2639 70,59.5C 63.2104,58.2596 56.377,58.2596 49.5,59.5C 47.1932,60.6534 44.8599,61.8201 42.5,63C 43.1667,63.3333 43.8333,63.6667 44.5,64C 39.8333,67.3333 35.1667,70.6667 30.5,74C 29.1772,74.8159 28.5106,75.9826 28.5,77.5C 25.7029,79.795 23.0362,82.295 20.5,85C 18.4744,86.9592 16.3078,87.7925 14,87.5C 9.79519,94.6144 7.29519,102.281 6.5,110.5C 6.73607,114.779 7.90274,118.779 10,122.5C 10.3051,134.183 10.8051,145.85 11.5,157.5C 11.5,158.167 11.8333,158.5 12.5,158.5C 12.8303,165.532 12.497,172.532 11.5,179.5C 9.61467,180.609 7.61467,181.443 5.5,182C 7.92029,182.687 10.087,182.187 12,180.5C 12.6397,182.265 12.4731,183.932 11.5,185.5C 7.20792,188.457 3.20792,191.79 -0.5,195.5C -0.5,130.167 -0.5,64.8333 -0.5,-0.5 Z"/></g>
<g><path style="opacity:1" fill="#fcfcfd" d="M 155.5,5.5 C 162.139,7.3816 168.473,10.0483 174.5,13.5C 176.987,17.2037 179.987,19.7037 183.5,21C 181.364,24.1104 179.364,27.2771 177.5,30.5C 174.378,35.0806 172.044,40.0806 170.5,45.5C 173.518,45.7038 176.518,46.0371 179.5,46.5C 179.5,47.5 179.5,48.5 179.5,49.5C 180.5,49.5 181.5,49.5 182.5,49.5C 182.5,48.5 182.5,47.5 182.5,46.5C 185.482,46.9629 188.482,47.2962 191.5,47.5C 191.337,49.8568 191.503,52.1902 192,54.5C 192.251,52.567 192.751,50.7337 193.5,49C 196.832,49.1612 200.165,49.6612 203.5,50.5C 203.263,51.791 203.596,52.791 204.5,53.5C 204.975,56.0821 204.308,58.0821 202.5,59.5C 201.833,59.5 201.167,59.5 200.5,59.5C 182.581,53.9827 164.247,51.3161 145.5,51.5C 145.167,51.5 144.833,51.5 144.5,51.5C 144.505,47.4659 144.838,43.4659 145.5,39.5C 147.229,33.0737 148.229,26.4071 148.5,19.5C 149.907,14.8557 149.573,10.1891 147.5,5.5C 150.089,4.79502 152.756,4.79502 155.5,5.5 Z"/></g>
<g><path style="opacity:1" fill="#928897" d="M 139.5,2.5 C 130.385,3.05641 121.385,4.38974 112.5,6.5C 121.232,2.81638 130.232,1.48305 139.5,2.5 Z"/></g>
<g><path style="opacity:1" fill="#fbd7e3" d="M 139.5,2.5 C 145.16,2.44071 150.494,3.44071 155.5,5.5C 152.756,4.79502 150.089,4.79502 147.5,5.5C 149.573,10.1891 149.907,14.8557 148.5,19.5C 148.31,13.3568 144.976,10.3568 138.5,10.5C 138.167,21.1667 137.833,21.1667 137.5,10.5C 132.535,11.654 128.535,14.3207 125.5,18.5C 121.541,20.6258 117.707,22.9591 114,25.5C 112.949,30.4742 112.115,35.4742 111.5,40.5C 111.5,41.1667 111.5,41.8333 111.5,42.5C 110.848,41.5514 110.514,40.3847 110.5,39C 111.549,33.539 112.216,28.039 112.5,22.5C 109.138,22.0695 106.305,23.0695 104,25.5C 102.87,31.32 101.37,36.32 99.5,40.5C 99.5,39.5 99.5,38.5 99.5,37.5C 96.9512,37.6126 94.6179,36.9459 92.5,35.5C 91.0295,36.3805 90.1962,37.7139 90,39.5C 89.51,38.2068 89.3433,36.8734 89.5,35.5C 87.0733,35.523 84.74,36.023 82.5,37C 81.7476,37.6708 81.4142,38.5041 81.5,39.5C 80.9033,39.2648 80.5699,38.7648 80.5,38C 82.5813,33.6845 83.9146,29.1845 84.5,24.5C 87.5,22.1667 90.1667,19.5 92.5,16.5C 98.3015,11.5992 104.968,8.26588 112.5,6.5C 121.385,4.38974 130.385,3.05641 139.5,2.5 Z"/></g>
<g><path style="opacity:1" fill="#af9fad" d="M 92.5,16.5 C 90.1667,19.5 87.5,22.1667 84.5,24.5C 86.1667,20.8333 88.8333,18.1667 92.5,16.5 Z"/></g>
<g><path style="opacity:1" fill="#fdcede" d="M 148.5,19.5 C 148.229,26.4071 147.229,33.0737 145.5,39.5C 147.27,33.0909 144.937,29.4243 138.5,28.5C 136.628,35.0079 135.628,41.6745 135.5,48.5C 137.857,48.3367 140.19,48.5034 142.5,49C 143.252,49.6708 143.586,50.5041 143.5,51.5C 138.833,51.5 134.167,51.5 129.5,51.5C 130.406,50.0351 131.739,49.0351 133.5,48.5C 134.761,42.2282 135.427,35.8949 135.5,29.5C 131.208,29.5647 127.375,30.8981 124,33.5C 122.541,41.5442 122.374,49.5442 123.5,57.5C 122.01,59.2798 120.01,59.9465 117.5,59.5C 117.5,58.8333 117.5,58.1667 117.5,57.5C 118.583,57.4606 119.583,57.1272 120.5,56.5C 121.312,50.0134 121.978,43.5134 122.5,37C 122.167,35.8333 121.833,34.6667 121.5,33.5C 118.138,35.843 114.804,38.1764 111.5,40.5C 112.115,35.4742 112.949,30.4742 114,25.5C 117.707,22.9591 121.541,20.6258 125.5,18.5C 128.535,14.3207 132.535,11.654 137.5,10.5C 137.833,21.1667 138.167,21.1667 138.5,10.5C 144.976,10.3568 148.31,13.3568 148.5,19.5 Z"/></g>
<g><path style="opacity:1" fill="#d2bdcf" d="M 174.5,13.5 C 182.352,17.6791 189.019,23.3457 194.5,30.5C 191.578,30.0035 188.911,28.3368 186.5,25.5C 184.1,27.2964 182.433,29.6298 181.5,32.5C 180.167,31.8333 178.833,31.1667 177.5,30.5C 179.364,27.2771 181.364,24.1104 183.5,21C 179.987,19.7037 176.987,17.2037 174.5,13.5 Z"/></g>
<g><path style="opacity:1" fill="#f6ccdc" d="M 111.5,42.5 C 111.5,45.5 111.5,48.5 111.5,51.5C 98.3726,52.5429 86.0393,56.2096 74.5,62.5C 74.1667,61.5 73.5,60.8333 72.5,60.5C 71.902,56.2597 71.902,51.9264 72.5,47.5C 74.6684,38.8282 78.6684,31.1616 84.5,24.5C 83.9146,29.1845 82.5813,33.6845 80.5,38C 80.5699,38.7648 80.9033,39.2648 81.5,39.5C 79.017,46.0503 78.017,52.717 78.5,59.5C 80.8333,58.1667 83.1667,56.8333 85.5,55.5C 86.2525,51.8085 87.0858,48.1418 88,44.5C 87.6051,47.8648 87.7718,51.1981 88.5,54.5C 91.3138,52.8954 94.3138,51.8954 97.5,51.5C 97.8084,47.6403 98.4751,43.9736 99.5,40.5C 101.37,36.32 102.87,31.32 104,25.5C 106.305,23.0695 109.138,22.0695 112.5,22.5C 112.216,28.039 111.549,33.539 110.5,39C 110.514,40.3847 110.848,41.5514 111.5,42.5 Z"/></g>
<g><path style="opacity:1" fill="#fcbcd4" d="M 145.5,39.5 C 144.838,43.4659 144.505,47.4659 144.5,51.5C 144.167,51.5 143.833,51.5 143.5,51.5C 143.586,50.5041 143.252,49.6708 142.5,49C 140.19,48.5034 137.857,48.3367 135.5,48.5C 135.628,41.6745 136.628,35.0079 138.5,28.5C 144.937,29.4243 147.27,33.0909 145.5,39.5 Z"/></g>
<g><path style="opacity:1" fill="#bbc3dd" d="M 177.5,30.5 C 178.833,31.1667 180.167,31.8333 181.5,32.5C 180.18,35.1401 178.847,37.8068 177.5,40.5C 177.709,41.086 178.043,41.586 178.5,42C 185.297,42.4595 191.963,43.6261 198.5,45.5C 199.772,45.4302 200.938,45.0968 202,44.5C 203.549,47.3117 204.382,50.3117 204.5,53.5C 203.596,52.791 203.263,51.791 203.5,50.5C 200.165,49.6612 196.832,49.1612 193.5,49C 192.751,50.7337 192.251,52.567 192,54.5C 191.503,52.1902 191.337,49.8568 191.5,47.5C 188.482,47.2962 185.482,46.9629 182.5,46.5C 182.5,47.5 182.5,48.5 182.5,49.5C 181.5,49.5 180.5,49.5 179.5,49.5C 179.5,48.5 179.5,47.5 179.5,46.5C 176.518,46.0371 173.518,45.7038 170.5,45.5C 172.044,40.0806 174.378,35.0806 177.5,30.5 Z"/></g>
<g><path style="opacity:1" fill="#febcd6" d="M 117.5,57.5 C 117.167,57.5 116.833,57.5 116.5,57.5C 115.55,54.8851 113.883,52.8851 111.5,51.5C 111.5,48.5 111.5,45.5 111.5,42.5C 111.5,41.8333 111.5,41.1667 111.5,40.5C 114.804,38.1764 118.138,35.843 121.5,33.5C 121.833,34.6667 122.167,35.8333 122.5,37C 121.978,43.5134 121.312,50.0134 120.5,56.5C 119.583,57.1272 118.583,57.4606 117.5,57.5 Z"/></g>
<g><path style="opacity:1" fill="#ffc0d8" d="M 99.5,40.5 C 98.4751,43.9736 97.8084,47.6403 97.5,51.5C 94.3138,51.8954 91.3138,52.8954 88.5,54.5C 87.7718,51.1981 87.6051,47.8648 88,44.5C 87.0858,48.1418 86.2525,51.8085 85.5,55.5C 83.1667,56.8333 80.8333,58.1667 78.5,59.5C 78.017,52.717 79.017,46.0503 81.5,39.5C 81.4142,38.5041 81.7476,37.6708 82.5,37C 84.74,36.023 87.0733,35.523 89.5,35.5C 89.3433,36.8734 89.51,38.2068 90,39.5C 90.1962,37.7139 91.0295,36.3805 92.5,35.5C 94.6179,36.9459 96.9512,37.6126 99.5,37.5C 99.5,38.5 99.5,39.5 99.5,40.5 Z"/></g>
<g><path style="opacity:1" fill="#febbd5" d="M 129.5,51.5 C 127.5,53.5 125.5,55.5 123.5,57.5C 122.374,49.5442 122.541,41.5442 124,33.5C 127.375,30.8981 131.208,29.5647 135.5,29.5C 135.427,35.8949 134.761,42.2282 133.5,48.5C 131.739,49.0351 130.406,50.0351 129.5,51.5 Z"/></g>
<g><path style="opacity:1" fill="#6883aa" d="M 111.5,51.5 C 113.883,52.8851 115.55,54.8851 116.5,57.5C 111.484,56.8524 106.484,57.3524 101.5,59C 98.7477,62.078 96.4144,65.4113 94.5,69C 97.8594,68.9636 101.193,68.4636 104.5,67.5C 104.167,68.1667 103.833,68.8333 103.5,69.5C 98.9554,70.5712 94.6221,72.2379 90.5,74.5C 90.112,69.9127 90.112,65.246 90.5,60.5C 88.5328,60.2606 86.6995,60.5939 85,61.5C 84.433,64.1677 83.933,66.8344 83.5,69.5C 81.2478,68.6669 79.0811,68.6669 77,69.5C 76.5814,68.3279 75.9147,67.3279 75,66.5C 74.8019,68.3817 74.3019,70.0484 73.5,71.5C 73.5,69.1667 73.5,66.8333 73.5,64.5C 73.3284,63.5084 73.6618,62.8417 74.5,62.5C 86.0393,56.2096 98.3726,52.5429 111.5,51.5 Z"/></g>
<g><path style="opacity:1" fill="#6c83ad" d="M 129.5,51.5 C 134.167,51.5 138.833,51.5 143.5,51.5C 143.833,51.5 144.167,51.5 144.5,51.5C 144.833,51.5 145.167,51.5 145.5,51.5C 146.167,52.5 146.833,53.5 147.5,54.5C 144.911,55.4194 142.911,57.086 141.5,59.5C 141.167,59.5 140.833,59.5 140.5,59.5C 139.486,58.2353 137.986,57.5687 136,57.5C 132.209,58.1377 128.709,59.4711 125.5,61.5C 124.167,61.5 122.833,61.5 121.5,61.5C 120.167,60.8333 118.833,60.1667 117.5,59.5C 120.01,59.9465 122.01,59.2798 123.5,57.5C 125.5,55.5 127.5,53.5 129.5,51.5 Z"/></g>
<g><path style="opacity:1" fill="#f8b9d2" d="M 145.5,51.5 C 164.247,51.3161 182.581,53.9827 200.5,59.5C 200.611,60.1174 200.944,60.6174 201.5,61C 197.646,61.3541 193.812,61.8541 190,62.5C 187.343,61.9226 184.843,60.9226 182.5,59.5C 182.167,59.6667 181.833,59.8333 181.5,60C 182.328,60.9147 183.328,61.5814 184.5,62C 180.682,64.1711 176.515,65.3377 172,65.5C 165.965,63.5621 160.132,61.2288 154.5,58.5C 153.833,58.5 153.167,58.5 152.5,58.5C 151.415,56.4131 149.749,55.0798 147.5,54.5C 146.833,53.5 146.167,52.5 145.5,51.5 Z"/></g>
<g><path style="opacity:1" fill="#e2afd4" d="M 147.5,54.5 C 149.168,56.4786 149.834,58.812 149.5,61.5C 146.833,60.8333 144.167,60.1667 141.5,59.5C 142.911,57.086 144.911,55.4194 147.5,54.5 Z"/></g>
<g><path style="opacity:1" fill="#9793a4" d="M 72.5,47.5 C 71.902,51.9264 71.902,56.2597 72.5,60.5C 64.6598,59.5335 56.9931,59.2002 49.5,59.5C 56.377,58.2596 63.2104,58.2596 70,59.5C 70.3349,55.2639 71.1682,51.2639 72.5,47.5 Z"/></g>
<g><path style="opacity:1" fill="#c2c3d3" d="M 116.5,57.5 C 116.833,57.5 117.167,57.5 117.5,57.5C 117.5,58.1667 117.5,58.8333 117.5,59.5C 118.833,60.1667 120.167,60.8333 121.5,61.5C 115.985,63.8089 110.318,64.1422 104.5,62.5C 104.5,64.1667 104.5,65.8333 104.5,67.5C 101.193,68.4636 97.8594,68.9636 94.5,69C 96.4144,65.4113 98.7477,62.078 101.5,59C 106.484,57.3524 111.484,56.8524 116.5,57.5 Z"/></g>
<g><path style="opacity:1" fill="#b9b8ca" d="M 140.5,59.5 C 140.389,60.1174 140.056,60.6174 139.5,61C 141.167,61.3333 142.833,61.6667 144.5,62C 142.167,62.3333 139.833,62.6667 137.5,63C 134.683,67.6431 131.349,71.8098 127.5,75.5C 126.115,76.5736 124.949,77.9069 124,79.5C 123.833,79.1667 123.667,78.8333 123.5,78.5C 123.206,72.5616 123.873,66.8949 125.5,61.5C 128.709,59.4711 132.209,58.1377 136,57.5C 137.986,57.5687 139.486,58.2353 140.5,59.5 Z"/></g>
<g><path style="opacity:1" fill="#d2d0df" d="M 49.5,59.5 C 56.9931,59.2002 64.6598,59.5335 72.5,60.5C 60.3275,63.1694 50.6608,70.1694 43.5,81.5C 42.0783,81.7086 40.745,82.2086 39.5,83C 18.4415,108.068 11.6082,136.568 19,168.5C 19.9003,171.718 21.067,174.718 22.5,177.5C 23.1667,180.833 23.8333,184.167 24.5,187.5C 25.5292,193.921 27.5292,199.921 30.5,205.5C 31.8333,208.833 33.1667,212.167 34.5,215.5C 33.4693,214.645 32.3026,213.978 31,213.5C 30.2352,213.57 29.7352,213.903 29.5,214.5C 28.2632,213.035 27.2632,211.368 26.5,209.5C 25.342,206.011 24.0086,202.678 22.5,199.5C 20.4421,191.49 18.2755,183.49 16,175.5C 14.7458,178.976 14.0791,182.642 14,186.5C 13.8299,176.991 13.3299,167.658 12.5,158.5C 11.8333,158.5 11.5,158.167 11.5,157.5C 11.5761,145.746 11.5761,133.913 11.5,122C 12.1667,121.667 12.8333,121.333 13.5,121C 12.9319,119.704 12.9319,118.204 13.5,116.5C 13.3333,115.5 13.1667,114.5 13,113.5C 12.7811,114.938 12.2811,116.271 11.5,117.5C 10.4733,105.412 13.9733,94.7457 22,85.5C 22.3333,85.8333 22.6667,86.1667 23,86.5C 24.5605,83.2167 26.7272,80.3834 29.5,78C 29.2716,77.6012 28.9382,77.4346 28.5,77.5C 28.5106,75.9826 29.1772,74.8159 30.5,74C 35.1667,70.6667 39.8333,67.3333 44.5,64C 43.8333,63.6667 43.1667,63.3333 42.5,63C 44.8599,61.8201 47.1932,60.6534 49.5,59.5 Z"/></g>
<g><path style="opacity:1" fill="#c0c2d2" d="M 91.5,59.5 C 93.1667,59.5 94.8333,59.5 96.5,59.5C 95.6332,62.9083 94.4665,66.2416 93,69.5C 91.9571,66.2432 91.4571,62.9099 91.5,59.5 Z"/></g>
<g><path style="opacity:1" fill="#c0c2d2" d="M 103.5,69.5 C 103.5,70.1667 103.5,70.8333 103.5,71.5C 100.067,76.7321 95.067,79.0654 88.5,78.5C 87.6721,79.4147 86.6721,80.0814 85.5,80.5C 84.0787,76.9725 83.4121,73.3058 83.5,69.5C 83.933,66.8344 84.433,64.1677 85,61.5C 86.6995,60.5939 88.5328,60.2606 90.5,60.5C 90.112,65.246 90.112,69.9127 90.5,74.5C 94.6221,72.2379 98.9554,70.5712 103.5,69.5 Z"/></g>
<g><path style="opacity:1" fill="#fae4e2" d="M 140.5,59.5 C 140.833,59.5 141.167,59.5 141.5,59.5C 144.167,60.1667 146.833,60.8333 149.5,61.5C 149.5,66.5 149.5,71.5 149.5,76.5C 149.5,77.1667 149.833,77.5 150.5,77.5C 150.674,79.861 151.007,82.1944 151.5,84.5C 151.167,84.5 150.833,84.5 150.5,84.5C 147.367,80.9333 143.367,78.9333 138.5,78.5C 137.402,77.603 137.402,76.7697 138.5,76C 135.833,75.3333 133.167,75.3333 130.5,76C 132.5,76.3333 134.5,76.6667 136.5,77C 134.618,77.1981 132.952,77.6981 131.5,78.5C 130.5,78.5 129.5,78.5 128.5,78.5C 127.89,77.609 127.557,76.609 127.5,75.5C 131.349,71.8098 134.683,67.6431 137.5,63C 139.833,62.6667 142.167,62.3333 144.5,62C 142.833,61.6667 141.167,61.3333 139.5,61C 140.056,60.6174 140.389,60.1174 140.5,59.5 Z"/></g>
<g><path style="opacity:1" fill="#dabdcb" d="M 204.5,53.5 C 205.165,55.3691 205.831,57.3691 206.5,59.5C 213.464,61.7657 220.464,63.9324 227.5,66C 232.946,67.8546 237.946,70.3546 242.5,73.5C 228.355,71.0079 215.021,66.3412 202.5,59.5C 204.308,58.0821 204.975,56.0821 204.5,53.5 Z"/></g>
<g><path style="opacity:1" fill="#c2c3d3" d="M 73.5,64.5 C 73.5,66.8333 73.5,69.1667 73.5,71.5C 68.4279,87.5206 63.4279,103.687 58.5,120C 58.6667,120.833 58.8333,121.667 59,122.5C 59.9009,119.929 61.2342,117.596 63,115.5C 63.7406,119.292 64.074,122.958 64,126.5C 65.0646,124.604 65.8979,124.437 66.5,126C 64.5876,129.212 63.5876,132.379 63.5,135.5C 60.8941,139.713 58.5607,144.047 56.5,148.5C 55.7321,149.263 55.2321,150.263 55,151.5C 54.6667,155.833 54.3333,160.167 54,164.5C 50.9244,166.426 47.7577,168.092 44.5,169.5C 40.1947,163.206 37.1947,156.206 35.5,148.5C 32.0561,120.9 38.2228,95.5665 54,72.5C 58.9025,65.5955 65.4025,62.9288 73.5,64.5 Z"/></g>
<g><path style="opacity:1" fill="#f5d1df" d="M 154.5,58.5 C 160.132,61.2288 165.965,63.5621 172,65.5C 176.515,65.3377 180.682,64.1711 184.5,62C 183.328,61.5814 182.328,60.9147 181.5,60C 181.833,59.8333 182.167,59.6667 182.5,59.5C 184.843,60.9226 187.343,61.9226 190,62.5C 193.812,61.8541 197.646,61.3541 201.5,61C 200.944,60.6174 200.611,60.1174 200.5,59.5C 201.167,59.5 201.833,59.5 202.5,59.5C 215.021,66.3412 228.355,71.0079 242.5,73.5C 243.585,75.5869 245.251,76.9202 247.5,77.5C 247.631,78.3764 247.298,79.0431 246.5,79.5C 242.992,77.8723 239.325,76.7056 235.5,76C 227.173,75.5003 218.84,75.3336 210.5,75.5C 210.167,75.5 209.833,75.5 209.5,75.5C 203.281,74.571 196.947,73.571 190.5,72.5C 179.845,71.5024 169.845,68.5024 160.5,63.5C 159.319,61.9328 157.653,61.0995 155.5,61C 154.748,60.3292 154.414,59.4959 154.5,58.5 Z"/></g>
<g><path style="opacity:1" fill="#878395" d="M 147.5,54.5 C 149.749,55.0798 151.415,56.4131 152.5,58.5C 150.853,64.2645 149.853,70.2645 149.5,76.5C 149.5,71.5 149.5,66.5 149.5,61.5C 149.834,58.812 149.168,56.4786 147.5,54.5 Z"/></g>
<g><path style="opacity:1" fill="#7f92ba" d="M 160.5,63.5 C 169.845,68.5024 179.845,71.5024 190.5,72.5C 189.048,73.3019 187.382,73.8019 185.5,74C 184.398,76.4009 184.231,78.9009 185,81.5C 185.837,75.1635 186.503,75.4968 187,82.5C 188.109,84.8147 189.943,86.3147 192.5,87C 192.272,87.3988 191.938,87.5654 191.5,87.5C 186.735,85.6185 182.068,83.4518 177.5,81C 171.685,75.3514 166.019,69.5181 160.5,63.5 Z"/></g>
<g><path style="opacity:1" fill="#d0cfdd" d="M 120.5,83.5 C 120.5,83.8333 120.5,84.1667 120.5,84.5C 119.5,84.8333 118.833,85.5 118.5,86.5C 114.498,91.3345 110.165,91.6678 105.5,87.5C 104.505,92.7921 104.172,98.1254 104.5,103.5C 103.189,108.061 102.522,112.728 102.5,117.5C 101.732,111.339 101.732,105.006 102.5,98.5C 103.002,88.8099 103.835,79.1432 105,69.5C 110.279,66.959 115.779,65.459 121.5,65C 116.459,66.0076 116.792,66.5076 122.5,66.5C 121.646,72.1423 120.98,77.809 120.5,83.5 Z"/></g>
<g><path style="opacity:1" fill="#8884a1" d="M 121.5,61.5 C 122.833,61.5 124.167,61.5 125.5,61.5C 123.873,66.8949 123.206,72.5616 123.5,78.5C 123.667,78.8333 123.833,79.1667 124,79.5C 124.949,77.9069 126.115,76.5736 127.5,75.5C 127.557,76.609 127.89,77.609 128.5,78.5C 125.563,79.8033 122.897,81.47 120.5,83.5C 120.98,77.809 121.646,72.1423 122.5,66.5C 116.792,66.5076 116.459,66.0076 121.5,65C 115.779,65.459 110.279,66.959 105,69.5C 103.835,79.1432 103.002,88.8099 102.5,98.5C 102.167,98.5 101.833,98.5 101.5,98.5C 101.657,97.1266 101.49,95.7932 101,94.5C 100.617,95.056 100.117,95.3893 99.5,95.5C 99.6641,92.8127 99.4974,90.146 99,87.5C 98.2917,86.6195 97.4584,85.9528 96.5,85.5C 96.5,85.1667 96.5,84.8333 96.5,84.5C 98.3146,85.6298 100.315,86.2964 102.5,86.5C 102.613,81.482 102.947,76.482 103.5,71.5C 103.5,70.8333 103.5,70.1667 103.5,69.5C 103.833,68.8333 104.167,68.1667 104.5,67.5C 104.5,65.8333 104.5,64.1667 104.5,62.5C 110.318,64.1422 115.985,63.8089 121.5,61.5 Z"/></g>
<g><path style="opacity:1" fill="#aeaab7" d="M 25.5,73.5 C 26.2389,73.369 26.9056,73.5357 27.5,74C 25,76.5 22.5,79 20,81.5C 19.3333,80.8333 19.3333,80.1667 20,79.5C 22.0396,77.6298 23.8729,75.6298 25.5,73.5 Z"/></g>
<g><path style="opacity:1" fill="#888293" d="M 242.5,73.5 C 244.749,74.0798 246.415,75.4131 247.5,77.5C 245.251,76.9202 243.585,75.5869 242.5,73.5 Z"/></g>
<g><path style="opacity:1" fill="#a594a1" d="M 138.5,78.5 C 136.167,78.5 133.833,78.5 131.5,78.5C 132.952,77.6981 134.618,77.1981 136.5,77C 134.5,76.6667 132.5,76.3333 130.5,76C 133.167,75.3333 135.833,75.3333 138.5,76C 137.402,76.7697 137.402,77.603 138.5,78.5 Z"/></g>
<g><path style="opacity:1" fill="#92a1c8" d="M 190.5,72.5 C 196.947,73.571 203.281,74.571 209.5,75.5C 208.761,75.369 208.094,75.5357 207.5,76C 208.738,79.3561 209.404,82.8561 209.5,86.5C 208.832,91.8414 208.165,97.1747 207.5,102.5C 207.205,96.6819 207.038,90.6819 207,84.5C 204.974,86.0974 202.641,87.0974 200,87.5C 198.69,88.1301 197.856,89.1301 197.5,90.5C 195.426,89.4861 193.426,88.4861 191.5,87.5C 191.938,87.5654 192.272,87.3988 192.5,87C 189.943,86.3147 188.109,84.8147 187,82.5C 186.503,75.4968 185.837,75.1635 185,81.5C 184.231,78.9009 184.398,76.4009 185.5,74C 187.382,73.8019 189.048,73.3019 190.5,72.5 Z"/></g>
<g><path style="opacity:1" fill="#ab8eb2" d="M 210.5,75.5 C 218.84,75.3336 227.173,75.5003 235.5,76C 239.325,76.7056 242.992,77.8723 246.5,79.5C 247.298,79.0431 247.631,78.3764 247.5,77.5C 252.309,80.4465 254.309,84.4465 253.5,89.5C 253.657,88.1266 253.49,86.7932 253,85.5C 250.01,93.1625 244.844,98.9958 237.5,103C 231.424,105.542 225.091,107.042 218.5,107.5C 220,107.833 221.5,108.167 223,108.5C 226.886,108.069 230.72,107.403 234.5,106.5C 232.852,107.927 230.852,108.76 228.5,109C 224.415,109.233 220.415,109.733 216.5,110.5C 217.299,107.57 217.632,104.57 217.5,101.5C 217.029,92.2781 214.695,83.6115 210.5,75.5 Z"/></g>
<g><path style="opacity:1" fill="#0e0e17" d="M 128.5,78.5 C 129.5,78.5 130.5,78.5 131.5,78.5C 133.833,78.5 136.167,78.5 138.5,78.5C 143.367,78.9333 147.367,80.9333 150.5,84.5C 150.737,85.791 150.404,86.791 149.5,87.5C 147.37,84.2633 144.37,82.2633 140.5,81.5C 139.434,80.3079 138.601,80.6412 138,82.5C 134.927,81.3832 131.76,81.2165 128.5,82C 126.697,82.6368 125.364,83.8035 124.5,85.5C 124.167,84.8333 123.833,84.1667 123.5,83.5C 122.482,84.1925 121.482,84.8592 120.5,85.5C 120.5,85.1667 120.5,84.8333 120.5,84.5C 120.5,84.1667 120.5,83.8333 120.5,83.5C 122.897,81.47 125.563,79.8033 128.5,78.5 Z"/></g>
<g><path style="opacity:1" fill="#bdbee3" d="M 140.5,81.5 C 144.37,82.2633 147.37,84.2633 149.5,87.5C 150.11,88.391 150.443,89.391 150.5,90.5C 150.5,91.1667 150.5,91.8333 150.5,92.5C 148.539,90.6878 146.206,89.6878 143.5,89.5C 142.828,86.6572 141.495,84.1572 139.5,82C 139.728,81.6012 140.062,81.4346 140.5,81.5 Z"/></g>
<g><path style="opacity:1" fill="#c4c2d2" d="M 152.5,58.5 C 153.167,58.5 153.833,58.5 154.5,58.5C 154.414,59.4959 154.748,60.3292 155.5,61C 157.653,61.0995 159.319,61.9328 160.5,63.5C 166.019,69.5181 171.685,75.3514 177.5,81C 182.068,83.4518 186.735,85.6185 191.5,87.5C 193.426,88.4861 195.426,89.4861 197.5,90.5C 199.47,95.5374 200.47,100.871 200.5,106.5C 196.149,103.311 192.649,99.3113 190,94.5C 189.709,96.783 190.209,98.9497 191.5,101C 191.265,101.873 190.931,102.707 190.5,103.5C 192.616,105.4 193.949,107.733 194.5,110.5C 194.539,111.583 194.873,112.583 195.5,113.5C 194.609,114.59 193.609,114.59 192.5,113.5C 191.792,111.255 190.792,109.255 189.5,107.5C 188.341,105.75 186.674,104.75 184.5,104.5C 180.177,101.649 177.01,97.6488 175,92.5C 174.442,96.9936 175.609,100.994 178.5,104.5C 178.5,105.167 178.167,105.5 177.5,105.5C 176.343,103.862 175.176,102.196 174,100.5C 173.86,102.256 174.36,103.922 175.5,105.5C 175.137,106.183 174.804,106.85 174.5,107.5C 172.181,107.008 170.181,106.008 168.5,104.5C 164.472,100.141 160.472,95.8073 156.5,91.5C 154.461,86.7653 152.461,82.0986 150.5,77.5C 149.833,77.5 149.5,77.1667 149.5,76.5C 149.853,70.2645 150.853,64.2645 152.5,58.5 Z"/></g>
<g><path style="opacity:1" fill="#416392" d="M 140.5,81.5 C 140.062,81.4346 139.728,81.6012 139.5,82C 141.495,84.1572 142.828,86.6572 143.5,89.5C 143.5,89.8333 143.5,90.1667 143.5,90.5C 138.857,87.4212 133.69,85.7546 128,85.5C 125.22,85.9776 122.72,86.9776 120.5,88.5C 120.5,87.5 120.5,86.5 120.5,85.5C 121.482,84.8592 122.482,84.1925 123.5,83.5C 123.833,84.1667 124.167,84.8333 124.5,85.5C 125.364,83.8035 126.697,82.6368 128.5,82C 131.76,81.2165 134.927,81.3832 138,82.5C 138.601,80.6412 139.434,80.3079 140.5,81.5 Z"/></g>
<g><path style="opacity:1" fill="#c1c1d1" d="M 78.5,78.5 C 77.8769,86.8838 77.8769,95.2171 78.5,103.5C 77.6255,106.535 76.6255,109.535 75.5,112.5C 73.5217,117.129 71.5217,121.796 69.5,126.5C 68.6365,127.463 67.9698,127.463 67.5,126.5C 68.9895,122.865 70.3229,119.199 71.5,115.5C 72.4675,112.555 72.6342,109.555 72,106.5C 71.6667,108.167 71.3333,109.833 71,111.5C 70.5017,108.183 70.335,104.85 70.5,101.5C 71.29,100.391 71.79,99.0581 72,97.5C 72.3333,100.167 72.6667,102.833 73,105.5C 74.1375,95.2035 74.8042,84.8702 75,74.5C 75.4186,73.3279 76.0853,72.3279 77,71.5C 77.1862,74.0356 77.6862,76.369 78.5,78.5 Z"/></g>
<g><path style="opacity:1" fill="#f8e1e2" d="M 93.5,85.5 C 94.5,85.5 95.5,85.5 96.5,85.5C 97.4584,85.9528 98.2917,86.6195 99,87.5C 99.4974,90.146 99.6641,92.8127 99.5,95.5C 99.5,96.1667 99.5,96.8333 99.5,97.5C 98.8826,97.3893 98.3826,97.056 98,96.5C 97.6667,93.8333 97.3333,91.1667 97,88.5C 94.9235,87.2427 93.0902,87.576 91.5,89.5C 90.065,91.5976 88.8984,93.9309 88,96.5C 87.3292,97.2524 86.4959,97.5858 85.5,97.5C 85.6726,91.8178 88.3392,87.8178 93.5,85.5 Z"/></g>
<g><path style="opacity:1" fill="#c2c4d3" d="M 43.5,81.5 C 30.98,98.4586 27.6467,117.125 33.5,137.5C 32.3659,139.966 32.1993,142.633 33,145.5C 34.6638,153.497 36.3305,161.497 38,169.5C 40.6193,173.95 43.7859,177.95 47.5,181.5C 51.1068,187.773 55.7735,193.106 61.5,197.5C 60.5041,197.414 59.6708,197.748 59,198.5C 58.842,207.873 61.342,216.54 66.5,224.5C 63.3945,223.267 60.3945,223.433 57.5,225C 56.5939,226.699 56.2606,228.533 56.5,230.5C 54.8947,229.031 54.3947,229.365 55,231.5C 59.4059,235.722 63.2392,239.722 66.5,243.5C 66.1667,243.5 65.8333,243.5 65.5,243.5C 62.6689,242.921 60.3356,241.588 58.5,239.5C 56.2387,236.635 54.2387,233.635 52.5,230.5C 49.5013,223.172 46.5013,215.838 43.5,208.5C 38.5822,201 33.9155,193.333 29.5,185.5C 24.5447,175.793 21.7113,165.46 21,154.5C 20.2681,162.253 20.7681,169.919 22.5,177.5C 21.067,174.718 19.9003,171.718 19,168.5C 11.6082,136.568 18.4415,108.068 39.5,83C 40.745,82.2086 42.0783,81.7086 43.5,81.5 Z"/></g>
<g><path style="opacity:1" fill="#4da7d8" d="M 143.5,90.5 C 143.689,94.037 143.023,97.3703 141.5,100.5C 138.833,98.5 136.167,96.5 133.5,94.5C 132.21,93.9423 131.377,92.9423 131,91.5C 130.292,92.3805 129.458,93.0472 128.5,93.5C 125.487,93.1072 122.82,93.7739 120.5,95.5C 120.5,93.1667 120.5,90.8333 120.5,88.5C 122.72,86.9776 125.22,85.9776 128,85.5C 133.69,85.7546 138.857,87.4212 143.5,90.5 Z"/></g>
<g><path style="opacity:1" fill="#b4b3c2" d="M 28.5,77.5 C 28.9382,77.4346 29.2716,77.6012 29.5,78C 26.7272,80.3834 24.5605,83.2167 23,86.5C 22.6667,86.1667 22.3333,85.8333 22,85.5C 13.9733,94.7457 10.4733,105.412 11.5,117.5C 12.2811,116.271 12.7811,114.938 13,113.5C 13.1667,114.5 13.3333,115.5 13.5,116.5C 12.9319,118.204 12.9319,119.704 13.5,121C 12.8333,121.333 12.1667,121.667 11.5,122C 11.5761,133.913 11.5761,145.746 11.5,157.5C 10.8051,145.85 10.3051,134.183 10,122.5C 7.90274,118.779 6.73607,114.779 6.5,110.5C 7.29519,102.281 9.79519,94.6144 14,87.5C 16.3078,87.7925 18.4744,86.9592 20.5,85C 23.0362,82.295 25.7029,79.795 28.5,77.5 Z"/></g>
<g><path style="opacity:1" fill="#c2c4d3" d="M 118.5,86.5 C 119.497,103.659 119.83,120.992 119.5,138.5C 116.198,137.706 112.865,137.04 109.5,136.5C 108.833,133.5 108.167,130.5 107.5,127.5C 107.5,127.167 107.5,126.833 107.5,126.5C 107.677,122.766 107.344,119.099 106.5,115.5C 106.917,111.183 106.25,107.183 104.5,103.5C 104.172,98.1254 104.505,92.7921 105.5,87.5C 110.165,91.6678 114.498,91.3345 118.5,86.5 Z"/></g>
<g><path style="opacity:1" fill="#543b5c" d="M 150.5,84.5 C 150.833,84.5 151.167,84.5 151.5,84.5C 153.638,86.7431 153.804,89.0764 152,91.5C 151.617,90.944 151.117,90.6107 150.5,90.5C 150.443,89.391 150.11,88.391 149.5,87.5C 150.404,86.791 150.737,85.791 150.5,84.5 Z"/></g>
<g><path style="opacity:1" fill="#9fabc6" d="M 72.5,60.5 C 73.5,60.8333 74.1667,61.5 74.5,62.5C 73.6618,62.8417 73.3284,63.5084 73.5,64.5C 65.4025,62.9288 58.9025,65.5955 54,72.5C 38.2228,95.5665 32.0561,120.9 35.5,148.5C 35.3089,144.738 34.6422,141.071 33.5,137.5C 27.6467,117.125 30.98,98.4586 43.5,81.5C 50.6608,70.1694 60.3275,63.1694 72.5,60.5 Z"/></g>
<g><path style="opacity:1" fill="#b088a9" d="M 150.5,77.5 C 152.461,82.0986 154.461,86.7653 156.5,91.5C 154.797,90.3398 154.131,91.0065 154.5,93.5C 153.041,93.5674 151.708,93.2341 150.5,92.5C 150.5,91.8333 150.5,91.1667 150.5,90.5C 151.117,90.6107 151.617,90.944 152,91.5C 153.804,89.0764 153.638,86.7431 151.5,84.5C 151.007,82.1944 150.674,79.861 150.5,77.5 Z"/></g>
<g><path style="opacity:1" fill="#fcfcfd" d="M 143.5,89.5 C 146.206,89.6878 148.539,90.6878 150.5,92.5C 150.687,101.851 146.354,107.518 137.5,109.5C 135.955,109.489 134.622,109.156 133.5,108.5C 135.067,107.319 135.901,105.653 136,103.5C 136.667,104.167 137.333,104.833 138,105.5C 139.669,104.154 140.836,102.487 141.5,100.5C 143.023,97.3703 143.689,94.037 143.5,90.5C 143.5,90.1667 143.5,89.8333 143.5,89.5 Z"/></g>
<g><path style="opacity:1" fill="#a394b6" d="M 99.5,97.5 C 100.776,98.3864 100.776,99.3864 99.5,100.5C 98.5832,99.8728 97.5832,99.5394 96.5,99.5C 96.1667,98.1667 95.8333,96.8333 95.5,95.5C 96.5109,93.5976 96.6776,91.5976 96,89.5C 94.3845,90.8009 92.8845,90.8009 91.5,89.5C 93.0902,87.576 94.9235,87.2427 97,88.5C 97.3333,91.1667 97.6667,93.8333 98,96.5C 98.3826,97.056 98.8826,97.3893 99.5,97.5 Z"/></g>
<g><path style="opacity:1" fill="#475e86" d="M 209.5,75.5 C 209.833,75.5 210.167,75.5 210.5,75.5C 214.695,83.6115 217.029,92.2781 217.5,101.5C 216.132,103.564 215.132,105.898 214.5,108.5C 213.893,108.376 213.56,108.043 213.5,107.5C 214.112,102.156 213.279,96.8224 211,91.5C 209.176,96.4024 209.009,101.402 210.5,106.5C 210.167,106.5 209.833,106.5 209.5,106.5C 209.167,106.5 208.833,106.5 208.5,106.5C 208.768,104.901 208.434,103.568 207.5,102.5C 208.165,97.1747 208.832,91.8414 209.5,86.5C 209.404,82.8561 208.738,79.3561 207.5,76C 208.094,75.5357 208.761,75.369 209.5,75.5 Z"/></g>
<g><path style="opacity:1" fill="#f1f8fc" d="M 133.5,94.5 C 132.312,95.3636 131.145,96.3636 130,97.5C 129.209,96.255 128.709,94.9217 128.5,93.5C 129.458,93.0472 130.292,92.3805 131,91.5C 131.377,92.9423 132.21,93.9423 133.5,94.5 Z"/></g>
<g><path style="opacity:1" fill="#8dd1f2" d="M 128.5,93.5 C 128.709,94.9217 129.209,96.255 130,97.5C 131.145,96.3636 132.312,95.3636 133.5,94.5C 136.167,96.5 138.833,98.5 141.5,100.5C 140.836,102.487 139.669,104.154 138,105.5C 137.333,104.833 136.667,104.167 136,103.5C 135.901,105.653 135.067,107.319 133.5,108.5C 131.302,109.067 128.969,109.067 126.5,108.5C 124.117,107.115 122.45,105.115 121.5,102.5C 120.631,100.283 120.298,97.9496 120.5,95.5C 122.82,93.7739 125.487,93.1072 128.5,93.5 Z"/></g>
<g><path style="opacity:1" fill="#8093b5" d="M 83.5,69.5 C 83.4121,73.3058 84.0787,76.9725 85.5,80.5C 86.6721,80.0814 87.6721,79.4147 88.5,78.5C 95.067,79.0654 100.067,76.7321 103.5,71.5C 102.947,76.482 102.613,81.482 102.5,86.5C 100.315,86.2964 98.3146,85.6298 96.5,84.5C 95.7611,84.631 95.0944,84.4643 94.5,84C 95.6872,82.9805 96.6872,81.8139 97.5,80.5C 91.8483,78.9133 87.1817,80.4133 83.5,85C 87.025,84.9841 90.3583,85.1507 93.5,85.5C 88.3392,87.8178 85.6726,91.8178 85.5,97.5C 84.1805,96.0582 82.5138,95.3915 80.5,95.5C 80.9175,94.7784 81.5842,94.2784 82.5,94C 81.5399,92.5806 80.7065,91.0806 80,89.5C 79.9262,84.4093 79.4262,80.7426 78.5,78.5C 77.6862,76.369 77.1862,74.0356 77,71.5C 76.0853,72.3279 75.4186,73.3279 75,74.5C 74.8042,84.8702 74.1375,95.2035 73,105.5C 72.6667,102.833 72.3333,100.167 72,97.5C 71.79,99.0581 71.29,100.391 70.5,101.5C 69.0234,102.158 68.0234,103.825 67.5,106.5C 68.9313,109.547 70.2646,112.547 71.5,115.5C 70.3229,119.199 68.9895,122.865 67.5,126.5C 67.9698,127.463 68.6365,127.463 69.5,126.5C 68.7347,129.096 68.4013,131.763 68.5,134.5C 67.8485,133.909 67.1818,133.243 66.5,132.5C 65.7124,133.77 64.7124,134.77 63.5,135.5C 63.5876,132.379 64.5876,129.212 66.5,126C 65.8979,124.437 65.0646,124.604 64,126.5C 64.074,122.958 63.7406,119.292 63,115.5C 61.2342,117.596 59.9009,119.929 59,122.5C 58.8333,121.667 58.6667,120.833 58.5,120C 63.4279,103.687 68.4279,87.5206 73.5,71.5C 74.3019,70.0484 74.8019,68.3817 75,66.5C 75.9147,67.3279 76.5814,68.3279 77,69.5C 79.0811,68.6669 81.2478,68.6669 83.5,69.5 Z"/></g>
<g><path style="opacity:1" fill="#bec1d0" d="M 96.5,84.5 C 96.5,84.8333 96.5,85.1667 96.5,85.5C 95.5,85.5 94.5,85.5 93.5,85.5C 90.3583,85.1507 87.025,84.9841 83.5,85C 87.1817,80.4133 91.8483,78.9133 97.5,80.5C 96.6872,81.8139 95.6872,82.9805 94.5,84C 95.0944,84.4643 95.7611,84.631 96.5,84.5 Z"/></g>
<g><path style="opacity:1" fill="#dea6c9" d="M 91.5,89.5 C 92.8845,90.8009 94.3845,90.8009 96,89.5C 96.6776,91.5976 96.5109,93.5976 95.5,95.5C 94.4324,96.4345 93.099,96.7678 91.5,96.5C 92.0352,99.2385 91.0352,101.072 88.5,102C 89.8882,102.889 89.7215,103.389 88,103.5C 86.779,102.728 85.779,101.728 85,100.5C 84.5357,101.094 84.369,101.761 84.5,102.5C 83.9694,101.205 82.6361,100.538 80.5,100.5C 80.5,98.8333 80.5,97.1667 80.5,95.5C 82.5138,95.3915 84.1805,96.0582 85.5,97.5C 86.4959,97.5858 87.3292,97.2524 88,96.5C 88.8984,93.9309 90.065,91.5976 91.5,89.5 Z"/></g>
<g><path style="opacity:1" fill="#b093b4" d="M 213.5,107.5 C 212.209,107.737 211.209,107.404 210.5,106.5C 209.009,101.402 209.176,96.4024 211,91.5C 213.279,96.8224 214.112,102.156 213.5,107.5 Z"/></g>
<g><path style="opacity:1" fill="#c198c1" d="M 156.5,91.5 C 160.472,95.8073 164.472,100.141 168.5,104.5C 163.988,102.503 160.155,99.5025 157,95.5C 156.51,94.2068 156.343,92.8734 156.5,91.5 Z"/></g>
<g><path style="opacity:1" fill="#6b8aae" d="M 207.5,102.5 C 207.654,106.025 206.321,108.859 203.5,111C 204.582,112.33 205.249,113.83 205.5,115.5C 203.271,112.81 201.604,109.81 200.5,106.5C 200.47,100.871 199.47,95.5374 197.5,90.5C 197.856,89.1301 198.69,88.1301 200,87.5C 202.641,87.0974 204.974,86.0974 207,84.5C 207.038,90.6819 207.205,96.6819 207.5,102.5 Z"/></g>
<g><path style="opacity:1" fill="#e0c2d3" d="M 253.5,89.5 C 250.063,98.2638 243.73,103.93 234.5,106.5C 230.72,107.403 226.886,108.069 223,108.5C 221.5,108.167 220,107.833 218.5,107.5C 225.091,107.042 231.424,105.542 237.5,103C 244.844,98.9958 250.01,93.1625 253,85.5C 253.49,86.7932 253.657,88.1266 253.5,89.5 Z"/></g>
<g><path style="opacity:1" fill="#4c6991" d="M 80.5,95.5 C 80.5,97.1667 80.5,98.8333 80.5,100.5C 82.6361,100.538 83.9694,101.205 84.5,102.5C 84.5,103.167 84.5,103.833 84.5,104.5C 83.8501,104.196 83.1835,103.863 82.5,103.5C 81.4793,104.901 80.4793,106.235 79.5,107.5C 79.5674,106.041 79.2341,104.708 78.5,103.5C 77.8769,95.2171 77.8769,86.8838 78.5,78.5C 79.4262,80.7426 79.9262,84.4093 80,89.5C 80.7065,91.0806 81.5399,92.5806 82.5,94C 81.5842,94.2784 80.9175,94.7784 80.5,95.5 Z"/></g>
<g><path style="opacity:1" fill="#b296b3" d="M 184.5,104.5 C 182.5,104.5 180.5,104.5 178.5,104.5C 175.609,100.994 174.442,96.9936 175,92.5C 177.01,97.6488 180.177,101.649 184.5,104.5 Z"/></g>
<g><path style="opacity:1" fill="#dbacd1" d="M 101.5,98.5 C 100.97,106.321 100.304,113.988 99.5,121.5C 99.7475,119.142 99.0808,117.142 97.5,115.5C 99.2726,114.686 99.7726,113.352 99,111.5C 97.0679,109.962 94.9012,108.795 92.5,108C 89.6386,105.353 90.1386,103.52 94,102.5C 97.4426,103.887 98.2759,102.887 96.5,99.5C 97.5832,99.5394 98.5832,99.8728 99.5,100.5C 100.776,99.3864 100.776,98.3864 99.5,97.5C 99.5,96.8333 99.5,96.1667 99.5,95.5C 100.117,95.3893 100.617,95.056 101,94.5C 101.49,95.7932 101.657,97.1266 101.5,98.5 Z"/></g>
<g><path style="opacity:1" fill="#718ab0" d="M 84.5,104.5 C 86.1153,107.45 88.1153,110.116 90.5,112.5C 90.3505,113.552 90.5172,114.552 91,115.5C 94.0513,117.05 96.218,119.383 97.5,122.5C 95.3792,122.325 93.3792,122.659 91.5,123.5C 87.8052,119.285 84.6386,114.618 82,109.5C 81.8195,111.488 81.9862,113.488 82.5,115.5C 80.9028,113.152 79.9028,110.486 79.5,107.5C 80.4793,106.235 81.4793,104.901 82.5,103.5C 83.1835,103.863 83.8501,104.196 84.5,104.5 Z"/></g>
<g><path style="opacity:1" fill="#f1dcdb" d="M 95.5,95.5 C 95.8333,96.8333 96.1667,98.1667 96.5,99.5C 98.2759,102.887 97.4426,103.887 94,102.5C 90.1386,103.52 89.6386,105.353 92.5,108C 94.9012,108.795 97.0679,109.962 99,111.5C 99.7726,113.352 99.2726,114.686 97.5,115.5C 94.9785,114.989 92.6451,113.989 90.5,112.5C 88.1153,110.116 86.1153,107.45 84.5,104.5C 84.5,103.833 84.5,103.167 84.5,102.5C 84.369,101.761 84.5357,101.094 85,100.5C 85.779,101.728 86.779,102.728 88,103.5C 89.7215,103.389 89.8882,102.889 88.5,102C 91.0352,101.072 92.0352,99.2385 91.5,96.5C 93.099,96.7678 94.4324,96.4345 95.5,95.5 Z"/></g>
<g><path style="opacity:1" fill="#e9e9ef" d="M 78.5,103.5 C 79.2341,104.708 79.5674,106.041 79.5,107.5C 79.9028,110.486 80.9028,113.152 82.5,115.5C 84.4338,120.948 87.7672,125.448 92.5,129C 90.04,130.458 87.8734,132.291 86,134.5C 84.8847,138.021 86.0514,139.854 89.5,140C 87.9926,139.163 87.4926,137.996 88,136.5C 90.6713,134.098 93.5046,132.098 96.5,130.5C 96.8333,130.5 97.1667,130.5 97.5,130.5C 97.4535,133.969 96.7868,137.302 95.5,140.5C 93.9731,140.427 92.9731,141.094 92.5,142.5C 91.8826,142.611 91.3826,142.944 91,143.5C 86.6231,142.853 82.4564,141.519 78.5,139.5C 76.63,135.874 74.9633,132.208 73.5,128.5C 73.6816,126.409 73.3482,124.409 72.5,122.5C 74.3124,119.397 75.3124,116.064 75.5,112.5C 76.6255,109.535 77.6255,106.535 78.5,103.5 Z"/></g>
<g><path style="opacity:1" fill="#fdd4d7" d="M 121.5,102.5 C 122.45,105.115 124.117,107.115 126.5,108.5C 127.55,113.114 127.717,117.78 127,122.5C 125.669,124.996 123.836,126.996 121.5,128.5C 120.351,119.677 120.351,111.011 121.5,102.5 Z"/></g>
<g><path style="opacity:1" fill="#dad4e4" d="M 200.5,106.5 C 201.604,109.81 203.271,112.81 205.5,115.5C 206.08,117.749 207.413,119.415 209.5,120.5C 211.027,120.427 212.027,121.094 212.5,122.5C 212.265,123.097 211.765,123.43 211,123.5C 204.15,120.81 198.65,116.477 194.5,110.5C 193.949,107.733 192.616,105.4 190.5,103.5C 190.931,102.707 191.265,101.873 191.5,101C 190.209,98.9497 189.709,96.783 190,94.5C 192.649,99.3113 196.149,103.311 200.5,106.5 Z"/></g>
<g><path style="opacity:1" fill="#e3deeb" d="M 217.5,101.5 C 217.632,104.57 217.299,107.57 216.5,110.5C 215.175,111.953 214.342,111.619 214,109.5C 213.099,112.071 211.766,114.404 210,116.5C 209.502,113.183 209.335,109.85 209.5,106.5C 209.833,106.5 210.167,106.5 210.5,106.5C 211.209,107.404 212.209,107.737 213.5,107.5C 213.56,108.043 213.893,108.376 214.5,108.5C 215.132,105.898 216.132,103.564 217.5,101.5 Z"/></g>
<g><path style="opacity:1" fill="#2c2f4f" d="M 178.5,104.5 C 180.5,104.5 182.5,104.5 184.5,104.5C 186.674,104.75 188.341,105.75 189.5,107.5C 189.158,108.338 188.492,108.672 187.5,108.5C 186.365,106.787 184.698,106.12 182.5,106.5C 182.629,108.216 182.962,109.883 183.5,111.5C 183.5,112.167 183.5,112.833 183.5,113.5C 181.036,111.43 178.369,109.596 175.5,108C 176.066,107.005 176.733,106.172 177.5,105.5C 178.167,105.5 178.5,105.167 178.5,104.5 Z"/></g>
<g><path style="opacity:1" fill="#bab3e0" d="M 187.5,108.5 C 188.939,110.588 189.606,112.921 189.5,115.5C 187.772,113.774 185.772,112.441 183.5,111.5C 182.962,109.883 182.629,108.216 182.5,106.5C 184.698,106.12 186.365,106.787 187.5,108.5 Z"/></g>
<g><path style="opacity:1" fill="#c1c5d3" d="M 207.5,102.5 C 208.434,103.568 208.768,104.901 208.5,106.5C 208.665,110.182 208.499,113.848 208,117.5C 207.292,116.619 206.458,115.953 205.5,115.5C 205.249,113.83 204.582,112.33 203.5,111C 206.321,108.859 207.654,106.025 207.5,102.5 Z"/></g>
<g><path style="opacity:1" fill="#586484" d="M 70.5,101.5 C 70.335,104.85 70.5017,108.183 71,111.5C 71.3333,109.833 71.6667,108.167 72,106.5C 72.6342,109.555 72.4675,112.555 71.5,115.5C 70.2646,112.547 68.9313,109.547 67.5,106.5C 68.0234,103.825 69.0234,102.158 70.5,101.5 Z"/></g>
<g><path style="opacity:1" fill="#60a6db" d="M 177.5,105.5 C 176.733,106.172 176.066,107.005 175.5,108C 178.369,109.596 181.036,111.43 183.5,113.5C 183.309,117.663 181.643,120.996 178.5,123.5C 178.034,121.799 178.034,120.299 178.5,119C 175.289,114.982 171.622,114.482 167.5,117.5C 169.029,113.632 171.363,110.299 174.5,107.5C 174.804,106.85 175.137,106.183 175.5,105.5C 174.36,103.922 173.86,102.256 174,100.5C 175.176,102.196 176.343,103.862 177.5,105.5 Z"/></g>
<g><path style="opacity:1" fill="#f9f8fa" d="M 183.5,111.5 C 185.772,112.441 187.772,113.774 189.5,115.5C 189.5,116.5 189.5,117.5 189.5,118.5C 187.659,122.183 185.326,125.516 182.5,128.5C 178.568,130.382 174.568,130.716 170.5,129.5C 172.144,128.684 173.31,127.35 174,125.5C 176.108,126.612 177.608,125.946 178.5,123.5C 181.643,120.996 183.309,117.663 183.5,113.5C 183.5,112.833 183.5,112.167 183.5,111.5 Z"/></g>
<g><path style="opacity:1" fill="#ab9bb2" d="M 120.5,84.5 C 120.5,84.8333 120.5,85.1667 120.5,85.5C 120.5,86.5 120.5,87.5 120.5,88.5C 120.5,90.8333 120.5,93.1667 120.5,95.5C 120.298,97.9496 120.631,100.283 121.5,102.5C 120.351,111.011 120.351,119.677 121.5,128.5C 121.505,132.534 121.838,136.534 122.5,140.5C 121.518,143.962 121.185,147.629 121.5,151.5C 121.5,151.833 121.5,152.167 121.5,152.5C 120.784,147.936 120.117,143.269 119.5,138.5C 119.83,120.992 119.497,103.659 118.5,86.5C 118.833,85.5 119.5,84.8333 120.5,84.5 Z"/></g>
<g><path style="opacity:1" fill="#7c7a88" d="M 208.5,106.5 C 208.833,106.5 209.167,106.5 209.5,106.5C 209.335,109.85 209.502,113.183 210,116.5C 211.766,114.404 213.099,112.071 214,109.5C 214.342,111.619 215.175,111.953 216.5,110.5C 214.167,113.833 211.833,117.167 209.5,120.5C 207.413,119.415 206.08,117.749 205.5,115.5C 206.458,115.953 207.292,116.619 208,117.5C 208.499,113.848 208.665,110.182 208.5,106.5 Z"/></g>
<g><path style="opacity:1" fill="#adadbc" d="M 91.5,123.5 C 91.3505,124.552 91.5172,125.552 92,126.5C 94.501,124.944 96.001,125.611 96.5,128.5C 96.5,129.167 96.5,129.833 96.5,130.5C 93.5046,132.098 90.6713,134.098 88,136.5C 87.4926,137.996 87.9926,139.163 89.5,140C 86.0514,139.854 84.8847,138.021 86,134.5C 87.8734,132.291 90.04,130.458 92.5,129C 87.7672,125.448 84.4338,120.948 82.5,115.5C 81.9862,113.488 81.8195,111.488 82,109.5C 84.6386,114.618 87.8052,119.285 91.5,123.5 Z"/></g>
<g><path style="opacity:1" fill="#88728c" d="M 104.5,103.5 C 106.25,107.183 106.917,111.183 106.5,115.5C 105.683,113.031 105.183,110.365 105,107.5C 104.472,111.699 103.639,115.699 102.5,119.5C 102.5,118.833 102.5,118.167 102.5,117.5C 102.522,112.728 103.189,108.061 104.5,103.5 Z"/></g>
<g><path style="opacity:1" fill="#42618d" d="M 90.5,112.5 C 92.6451,113.989 94.9785,114.989 97.5,115.5C 99.0808,117.142 99.7475,119.142 99.5,121.5C 100.388,124.054 100.721,126.721 100.5,129.5C 99.609,130.11 98.609,130.443 97.5,130.5C 97.1667,130.5 96.8333,130.5 96.5,130.5C 96.5,129.833 96.5,129.167 96.5,128.5C 98.7288,126.901 99.0622,124.901 97.5,122.5C 96.218,119.383 94.0513,117.05 91,115.5C 90.5172,114.552 90.3505,113.552 90.5,112.5 Z"/></g>
<g><path style="opacity:1" fill="#65759c" d="M 189.5,107.5 C 190.792,109.255 191.792,111.255 192.5,113.5C 193.609,114.59 194.609,114.59 195.5,113.5C 194.873,112.583 194.539,111.583 194.5,110.5C 198.65,116.477 204.15,120.81 211,123.5C 211.765,123.43 212.265,123.097 212.5,122.5C 213.289,122.783 213.956,123.283 214.5,124C 212.833,124.333 211.167,124.667 209.5,125C 212.53,131.591 214.864,138.424 216.5,145.5C 215.949,150.508 215.616,155.508 215.5,160.5C 214.471,152.688 212.804,145.022 210.5,137.5C 208.652,133.146 207.985,128.48 208.5,123.5C 207.448,123.649 206.448,123.483 205.5,123C 202.64,120.64 199.64,118.473 196.5,116.5C 194.842,123.092 193.509,129.758 192.5,136.5C 191.514,132.03 191.181,127.363 191.5,122.5C 190.833,121.167 190.167,119.833 189.5,118.5C 189.5,117.5 189.5,116.5 189.5,115.5C 189.606,112.921 188.939,110.588 187.5,108.5C 188.492,108.672 189.158,108.338 189.5,107.5 Z"/></g>
<g><path style="opacity:1" fill="#95d2f7" d="M 178.5,123.5 C 177.608,125.946 176.108,126.612 174,125.5C 173.31,127.35 172.144,128.684 170.5,129.5C 168.629,129.141 167.129,128.141 166,126.5C 165.424,123.228 165.924,120.228 167.5,117.5C 171.622,114.482 175.289,114.982 178.5,119C 178.034,120.299 178.034,121.799 178.5,123.5 Z"/></g>
<g><path style="opacity:1" fill="#fee8e7" d="M 156.5,91.5 C 156.343,92.8734 156.51,94.2068 157,95.5C 160.155,99.5025 163.988,102.503 168.5,104.5C 170.181,106.008 172.181,107.008 174.5,107.5C 171.363,110.299 169.029,113.632 167.5,117.5C 165.924,120.228 165.424,123.228 166,126.5C 167.129,128.141 168.629,129.141 170.5,129.5C 174.568,130.716 178.568,130.382 182.5,128.5C 181.396,130.389 180.063,132.055 178.5,133.5C 167.012,133.403 163.012,139.07 166.5,150.5C 164.145,151.659 161.812,152.659 159.5,153.5C 157.901,153.232 156.568,153.566 155.5,154.5C 150.947,154.763 146.447,155.429 142,156.5C 139.59,156.518 137.423,155.851 135.5,154.5C 133.23,147.897 128.897,143.231 122.5,140.5C 121.838,136.534 121.505,132.534 121.5,128.5C 123.836,126.996 125.669,124.996 127,122.5C 127.717,117.78 127.55,113.114 126.5,108.5C 128.969,109.067 131.302,109.067 133.5,108.5C 134.622,109.156 135.955,109.489 137.5,109.5C 146.354,107.518 150.687,101.851 150.5,92.5C 151.708,93.2341 153.041,93.5674 154.5,93.5C 154.131,91.0065 154.797,90.3398 156.5,91.5 Z"/></g>
<g><path style="opacity:1" fill="#cccada" d="M 210.5,137.5 C 209.662,137.842 209.328,138.508 209.5,139.5C 208.778,139.082 208.278,138.416 208,137.5C 206.464,148.972 204.298,160.306 201.5,171.5C 200.5,171.5 199.5,171.5 198.5,171.5C 196.585,171.784 194.919,171.451 193.5,170.5C 192.791,169.596 191.791,169.263 190.5,169.5C 190.757,161.265 192.257,153.265 195,145.5C 195.667,143.167 195.667,140.833 195,138.5C 193.909,146.441 191.243,153.775 187,160.5C 184.726,164.152 181.559,165.985 177.5,166C 178.056,165.617 178.389,165.117 178.5,164.5C 185.788,156.591 190.455,147.258 192.5,136.5C 193.509,129.758 194.842,123.092 196.5,116.5C 199.64,118.473 202.64,120.64 205.5,123C 206.448,123.483 207.448,123.649 208.5,123.5C 207.985,128.48 208.652,133.146 210.5,137.5 Z"/></g>
<g><path style="opacity:1" fill="#f7edf2" d="M 97.5,122.5 C 99.0622,124.901 98.7288,126.901 96.5,128.5C 96.001,125.611 94.501,124.944 92,126.5C 91.5172,125.552 91.3505,124.552 91.5,123.5C 93.3792,122.659 95.3792,122.325 97.5,122.5 Z"/></g>
<g><path style="opacity:1" fill="#b0adbe" d="M 101.5,98.5 C 101.833,98.5 102.167,98.5 102.5,98.5C 101.732,105.006 101.732,111.339 102.5,117.5C 102.5,118.167 102.5,118.833 102.5,119.5C 102.5,122.167 102.5,124.833 102.5,127.5C 101.671,134.989 101.171,142.656 101,150.5C 100.5,143.508 100.334,136.508 100.5,129.5C 100.721,126.721 100.388,124.054 99.5,121.5C 100.304,113.988 100.97,106.321 101.5,98.5 Z"/></g>
<g><path style="opacity:1" fill="#f9d0d5" d="M 107.5,126.5 C 107.5,126.833 107.5,127.167 107.5,127.5C 107.5,129.833 107.5,132.167 107.5,134.5C 102.706,130.91 102.206,126.576 106,121.5C 106.198,123.382 106.698,125.048 107.5,126.5 Z"/></g>
<g><path style="opacity:1" fill="#c6b0c5" d="M 73.5,128.5 C 74.9633,132.208 76.63,135.874 78.5,139.5C 79.2026,141.716 80.5359,143.549 82.5,145C 81.944,145.383 81.6107,145.883 81.5,146.5C 75.2121,144.543 70.8787,140.543 68.5,134.5C 68.4013,131.763 68.7347,129.096 69.5,126.5C 70.1499,126.196 70.8165,125.863 71.5,125.5C 72.1757,126.602 72.8423,127.602 73.5,128.5 Z"/></g>
<g><path style="opacity:1" fill="#7b7d9a" d="M 75.5,112.5 C 75.3124,116.064 74.3124,119.397 72.5,122.5C 73.3482,124.409 73.6816,126.409 73.5,128.5C 72.8423,127.602 72.1757,126.602 71.5,125.5C 70.8165,125.863 70.1499,126.196 69.5,126.5C 71.5217,121.796 73.5217,117.129 75.5,112.5 Z"/></g>
<g><path style="opacity:1" fill="#8a9dc6" d="M 191.5,122.5 C 191.181,127.363 191.514,132.03 192.5,136.5C 190.455,147.258 185.788,156.591 178.5,164.5C 178.631,163.761 178.464,163.094 178,162.5C 177.583,163.756 176.75,164.423 175.5,164.5C 174.583,161.583 173.916,158.583 173.5,155.5C 175.045,148.387 177.879,141.72 182,135.5C 182.492,142.583 182.158,149.583 181,156.5C 183.111,146.96 184.444,137.293 185,127.5C 186.468,124.858 188.635,123.191 191.5,122.5 Z"/></g>
<g><path style="opacity:1" fill="#eaeaf0" d="M 68.5,134.5 C 70.8787,140.543 75.2121,144.543 81.5,146.5C 83.0481,146.821 83.7148,147.821 83.5,149.5C 73.7402,151.713 65.0736,156.047 57.5,162.5C 56.5139,158.03 56.1805,153.363 56.5,148.5C 58.5607,144.047 60.8941,139.713 63.5,135.5C 64.7124,134.77 65.7124,133.77 66.5,132.5C 67.1818,133.243 67.8485,133.909 68.5,134.5 Z"/></g>
<g><path style="opacity:1" fill="#8e8597" d="M 102.5,127.5 C 102.5,130.833 102.5,134.167 102.5,137.5C 105.034,137.741 106.7,136.741 107.5,134.5C 107.5,132.167 107.5,129.833 107.5,127.5C 108.167,130.5 108.833,133.5 109.5,136.5C 109.5,139.167 109.5,141.833 109.5,144.5C 108.539,142.735 108.205,140.735 108.5,138.5C 106.5,138.5 104.5,138.5 102.5,138.5C 102.5,143.5 102.5,148.5 102.5,153.5C 102.443,154.609 102.11,155.609 101.5,156.5C 100.566,155.432 100.232,154.099 100.5,152.5C 99.8889,148.21 99.2223,143.877 98.5,139.5C 97.5832,140.127 96.5832,140.461 95.5,140.5C 96.7868,137.302 97.4535,133.969 97.5,130.5C 98.609,130.443 99.609,130.11 100.5,129.5C 100.334,136.508 100.5,143.508 101,150.5C 101.171,142.656 101.671,134.989 102.5,127.5 Z"/></g>
<g><path style="opacity:1" fill="#fcd2d5" d="M 178.5,133.5 C 176.022,140.3 172.022,145.967 166.5,150.5C 163.012,139.07 167.012,133.403 178.5,133.5 Z"/></g>
<g><path style="opacity:1" fill="#d199c1" d="M 106.5,115.5 C 107.344,119.099 107.677,122.766 107.5,126.5C 106.698,125.048 106.198,123.382 106,121.5C 102.206,126.576 102.706,130.91 107.5,134.5C 106.7,136.741 105.034,137.741 102.5,137.5C 102.5,134.167 102.5,130.833 102.5,127.5C 102.5,124.833 102.5,122.167 102.5,119.5C 103.639,115.699 104.472,111.699 105,107.5C 105.183,110.365 105.683,113.031 106.5,115.5 Z"/></g>
<g><path style="opacity:1" fill="#e4e4eb" d="M 210.5,137.5 C 212.804,145.022 214.471,152.688 215.5,160.5C 216.444,169.447 216.778,178.447 216.5,187.5C 215.364,193.918 212.697,199.585 208.5,204.5C 208.167,203.5 207.833,202.5 207.5,201.5C 208.61,196.503 209.61,191.503 210.5,186.5C 210.753,170.809 210.42,155.142 209.5,139.5C 209.328,138.508 209.662,137.842 210.5,137.5 Z"/></g>
<g><path style="opacity:1" fill="#ca9aba" d="M 100.5,152.5 C 99.4168,152.539 98.4168,152.873 97.5,153.5C 97.1667,153 96.8333,152.5 96.5,152C 99.9157,146.957 98.5823,144.457 92.5,144.5C 92.5,143.833 92.5,143.167 92.5,142.5C 92.9731,141.094 93.9731,140.427 95.5,140.5C 96.5832,140.461 97.5832,140.127 98.5,139.5C 99.2223,143.877 99.8889,148.21 100.5,152.5 Z"/></g>
<g><path style="opacity:1" fill="#7f88a7" d="M 78.5,139.5 C 82.4564,141.519 86.6231,142.853 91,143.5C 91.3826,142.944 91.8826,142.611 92.5,142.5C 92.5,143.167 92.5,143.833 92.5,144.5C 89.0872,145.374 86.0872,147.041 83.5,149.5C 83.7148,147.821 83.0481,146.821 81.5,146.5C 81.6107,145.883 81.944,145.383 82.5,145C 80.5359,143.549 79.2026,141.716 78.5,139.5 Z"/></g>
<g><path style="opacity:1" fill="#fcbcd4" d="M 92.5,144.5 C 98.5823,144.457 99.9157,146.957 96.5,152C 96.8333,152.5 97.1667,153 97.5,153.5C 98.4168,152.873 99.4168,152.539 100.5,152.5C 100.232,154.099 100.566,155.432 101.5,156.5C 102.282,160.063 103.616,163.397 105.5,166.5C 106.519,171.851 109.186,176.185 113.5,179.5C 114.74,185.661 117.74,190.661 122.5,194.5C 122.5,194.833 122.5,195.167 122.5,195.5C 120.036,202.727 117.87,210.06 116,217.5C 115.242,219.769 115.409,221.936 116.5,224C 120.833,224.333 125.167,224.667 129.5,225C 130.893,226.171 131.727,227.671 132,229.5C 137.055,231.276 138.555,229.609 136.5,224.5C 136.529,222.971 137.196,221.804 138.5,221C 145.557,219.319 152.557,217.486 159.5,215.5C 160.858,219.248 162.191,222.914 163.5,226.5C 164.11,227.391 164.443,228.391 164.5,229.5C 156.968,234.434 148.968,238.601 140.5,242C 134.224,243.424 127.891,243.758 121.5,243C 120.333,241.833 119.167,240.667 118,239.5C 114.76,241.968 111.26,243.968 107.5,245.5C 106.13,245.144 105.13,244.31 104.5,243C 103.332,239.152 102.165,235.319 101,231.5C 100.667,234.5 100.333,237.5 100,240.5C 99.0922,242.439 97.5922,243.439 95.5,243.5C 93.8185,241.992 91.8185,240.992 89.5,240.5C 90.3007,238.958 90.634,237.292 90.5,235.5C 91.937,234.275 93.6036,233.275 95.5,232.5C 97.9383,230.344 98.105,228.011 96,225.5C 95.4015,228.254 93.9015,230.254 91.5,231.5C 87.5341,232.162 83.5341,232.495 79.5,232.5C 71.6338,221.547 66.3005,209.547 63.5,196.5C 63.56,195.957 63.8933,195.624 64.5,195.5C 73.9732,203.603 83.9732,204.437 94.5,198C 98.8616,194.022 100.695,189.188 100,183.5C 99.3333,182.833 98.6667,182.167 98,181.5C 99.2715,191.381 94.7715,195.381 84.5,193.5C 80.8098,193.308 77.1431,192.975 73.5,192.5C 70.7594,192.293 68.4261,191.293 66.5,189.5C 65.5919,187.548 65.7586,185.548 67,183.5C 72.7859,172.263 78.2859,160.929 83.5,149.5C 86.0872,147.041 89.0872,145.374 92.5,144.5 Z"/></g>
<g><path style="opacity:1" fill="#edb2cc" d="M 109.5,144.5 C 109.5,145.167 109.5,145.833 109.5,146.5C 109.5,152.833 109.5,159.167 109.5,165.5C 106.648,161.796 104.315,157.796 102.5,153.5C 102.5,148.5 102.5,143.5 102.5,138.5C 104.5,138.5 106.5,138.5 108.5,138.5C 108.205,140.735 108.539,142.735 109.5,144.5 Z"/></g>
<g><path style="opacity:1" fill="#7d81a8" d="M 83.5,149.5 C 78.2859,160.929 72.7859,172.263 67,183.5C 65.7586,185.548 65.5919,187.548 66.5,189.5C 63.3197,187.745 60.3197,185.745 57.5,183.5C 56.8355,178.508 56.1688,173.508 55.5,168.5C 55.6759,166.215 56.3426,164.215 57.5,162.5C 65.0736,156.047 73.7402,151.713 83.5,149.5 Z"/></g>
<g><path style="opacity:1" fill="#798eb7" d="M 189.5,118.5 C 190.167,119.833 190.833,121.167 191.5,122.5C 188.635,123.191 186.468,124.858 185,127.5C 184.444,137.293 183.111,146.96 181,156.5C 182.158,149.583 182.492,142.583 182,135.5C 177.879,141.72 175.045,148.387 173.5,155.5C 173.5,154.5 173.5,153.5 173.5,152.5C 172.325,152.281 171.325,152.614 170.5,153.5C 171.374,155.747 171.708,158.08 171.5,160.5C 171.808,162.924 171.474,165.257 170.5,167.5C 170.167,166.833 169.833,166.167 169.5,165.5C 168.692,165.808 168.025,166.308 167.5,167C 168.623,168.044 169.956,168.71 171.5,169C 170.126,172.683 167.459,174.349 163.5,174C 162.126,177.41 161.459,177.243 161.5,173.5C 162.366,171.856 162.866,170.189 163,168.5C 160.564,171.447 157.731,173.78 154.5,175.5C 158.835,169.153 161.835,162.153 163.5,154.5C 162.311,153.571 160.978,153.238 159.5,153.5C 161.812,152.659 164.145,151.659 166.5,150.5C 172.022,145.967 176.022,140.3 178.5,133.5C 180.063,132.055 181.396,130.389 182.5,128.5C 185.326,125.516 187.659,122.183 189.5,118.5 Z"/></g>
<g><path style="opacity:1" fill="#beb2c3" d="M 216.5,145.5 C 219.788,155.098 221.455,165.098 221.5,175.5C 221.775,181.85 220.775,187.85 218.5,193.5C 217.952,191.374 217.285,189.374 216.5,187.5C 216.778,178.447 216.444,169.447 215.5,160.5C 215.616,155.508 215.949,150.508 216.5,145.5 Z"/></g>
<g><path style="opacity:1" fill="#febdd5" d="M 121.5,151.5 C 123.463,152.96 125.296,154.627 127,156.5C 132.711,164.755 138.544,172.921 144.5,181C 144.272,181.399 143.938,181.565 143.5,181.5C 139.662,179.383 135.662,178.216 131.5,178C 129.561,179.432 128.228,181.265 127.5,183.5C 126.5,180.833 125.5,178.167 124.5,175.5C 123.948,168.301 122.948,161.301 121.5,154.5C 121.5,153.833 121.5,153.167 121.5,152.5C 121.5,152.167 121.5,151.833 121.5,151.5 Z"/></g>
<g><path style="opacity:1" fill="#e7e7ee" d="M 159.5,153.5 C 160.978,153.238 162.311,153.571 163.5,154.5C 161.835,162.153 158.835,169.153 154.5,175.5C 153.508,175.672 152.842,175.338 152.5,174.5C 154.136,172.617 154.469,170.617 153.5,168.5C 148.768,166.154 144.101,163.821 139.5,161.5C 139.461,160.417 139.127,159.417 138.5,158.5C 144.396,157.608 150.062,156.274 155.5,154.5C 156.568,153.566 157.901,153.232 159.5,153.5 Z"/></g>
<g><path style="opacity:1" fill="#d9c7d9" d="M 109.5,136.5 C 112.865,137.04 116.198,137.706 119.5,138.5C 120.117,143.269 120.784,147.936 121.5,152.5C 121.5,153.167 121.5,153.833 121.5,154.5C 121.33,161.797 122.33,168.797 124.5,175.5C 125.5,178.167 126.5,180.833 127.5,183.5C 128.382,187.593 130.049,191.26 132.5,194.5C 132.369,195.376 132.702,196.043 133.5,196.5C 135.535,197.041 137.535,197.708 139.5,198.5C 136.318,200.99 132.985,200.99 129.5,198.5C 127.046,197.773 124.713,196.773 122.5,195.5C 122.5,195.167 122.5,194.833 122.5,194.5C 123.267,193.828 123.934,192.995 124.5,192C 120.403,185.654 116.403,179.321 112.5,173C 113.059,172.275 113.392,171.442 113.5,170.5C 112.155,162.361 110.822,154.361 109.5,146.5C 109.5,145.833 109.5,145.167 109.5,144.5C 109.5,141.833 109.5,139.167 109.5,136.5 Z"/></g>
<g><path style="opacity:1" fill="#f6e5f0" d="M 173.5,155.5 C 173.916,158.583 174.583,161.583 175.5,164.5C 175.927,168.824 176.261,173.158 176.5,177.5C 175.833,177.833 175.167,178.167 174.5,178.5C 173.78,172.326 172.78,166.326 171.5,160.5C 171.708,158.08 171.374,155.747 170.5,153.5C 171.325,152.614 172.325,152.281 173.5,152.5C 173.5,153.5 173.5,154.5 173.5,155.5 Z"/></g>
<g><path style="opacity:1" fill="#a49da9" d="M 135.5,154.5 C 137.423,155.851 139.59,156.518 142,156.5C 146.447,155.429 150.947,154.763 155.5,154.5C 150.062,156.274 144.396,157.608 138.5,158.5C 139.127,159.417 139.461,160.417 139.5,161.5C 137.412,159.664 136.079,157.331 135.5,154.5 Z"/></g>
<g><path style="opacity:1" fill="#5b7497" d="M 102.5,153.5 C 104.315,157.796 106.648,161.796 109.5,165.5C 111.1,167.571 111.6,169.905 111,172.5C 108.932,170.604 107.099,168.604 105.5,166.5C 103.616,163.397 102.282,160.063 101.5,156.5C 102.11,155.609 102.443,154.609 102.5,153.5 Z"/></g>
<g><path style="opacity:1" fill="#f9cce2" d="M 122.5,140.5 C 128.897,143.231 133.23,147.897 135.5,154.5C 136.079,157.331 137.412,159.664 139.5,161.5C 141.407,166.984 144.073,171.984 147.5,176.5C 149.496,182.155 151.496,187.822 153.5,193.5C 153.833,194.167 154.167,194.833 154.5,195.5C 151.489,194.331 148.822,192.664 146.5,190.5C 145.685,189.163 144.518,188.163 143,187.5C 142.51,185.455 142.677,183.455 143.5,181.5C 143.938,181.565 144.272,181.399 144.5,181C 138.544,172.921 132.711,164.755 127,156.5C 125.296,154.627 123.463,152.96 121.5,151.5C 121.185,147.629 121.518,143.962 122.5,140.5 Z"/></g>
<g><path style="opacity:1" fill="#657fa5" d="M 193.5,170.5 C 192.5,170.5 191.5,170.5 190.5,170.5C 190.307,174.449 189.807,174.449 189,170.5C 184.725,172.719 180.559,175.052 176.5,177.5C 176.261,173.158 175.927,168.824 175.5,164.5C 176.75,164.423 177.583,163.756 178,162.5C 178.464,163.094 178.631,163.761 178.5,164.5C 178.389,165.117 178.056,165.617 177.5,166C 181.559,165.985 184.726,164.152 187,160.5C 191.243,153.775 193.909,146.441 195,138.5C 195.667,140.833 195.667,143.167 195,145.5C 192.257,153.265 190.757,161.265 190.5,169.5C 191.791,169.263 192.791,169.596 193.5,170.5 Z"/></g>
<g><path style="opacity:1" fill="#d8d4e4" d="M 33.5,137.5 C 34.6422,141.071 35.3089,144.738 35.5,148.5C 37.1947,156.206 40.1947,163.206 44.5,169.5C 47.9319,175.053 52.2653,179.719 57.5,183.5C 60.3197,185.745 63.3197,187.745 66.5,189.5C 68.4261,191.293 70.7594,192.293 73.5,192.5C 74.3984,193.158 75.3984,193.824 76.5,194.5C 72.74,195.598 69.0733,195.265 65.5,193.5C 59.2331,189.9 53.2331,185.9 47.5,181.5C 43.7859,177.95 40.6193,173.95 38,169.5C 36.3305,161.497 34.6638,153.497 33,145.5C 32.1993,142.633 32.3659,139.966 33.5,137.5 Z"/></g>
<g><path style="opacity:1" fill="#6a85a9" d="M 209.5,139.5 C 210.42,155.142 210.753,170.809 210.5,186.5C 209.681,183.695 209.181,180.695 209,177.5C 207.806,175.475 206.306,175.141 204.5,176.5C 203.83,178.291 203.163,179.958 202.5,181.5C 202.296,178.482 201.963,175.482 201.5,172.5C 200.209,172.737 199.209,172.404 198.5,171.5C 199.5,171.5 200.5,171.5 201.5,171.5C 204.298,160.306 206.464,148.972 208,137.5C 208.278,138.416 208.778,139.082 209.5,139.5 Z"/></g>
<g><path style="opacity:1" fill="#a2a5bb" d="M 56.5,148.5 C 56.1805,153.363 56.5139,158.03 57.5,162.5C 56.3426,164.215 55.6759,166.215 55.5,168.5C 56.1688,173.508 56.8355,178.508 57.5,183.5C 52.2653,179.719 47.9319,175.053 44.5,169.5C 47.7577,168.092 50.9244,166.426 54,164.5C 54.3333,160.167 54.6667,155.833 55,151.5C 55.2321,150.263 55.7321,149.263 56.5,148.5 Z"/></g>
<g><path style="opacity:1" fill="#9492b3" d="M 139.5,161.5 C 144.101,163.821 148.768,166.154 153.5,168.5C 154.469,170.617 154.136,172.617 152.5,174.5C 151.571,175.936 150.405,177.269 149,178.5C 148.722,177.584 148.222,176.918 147.5,176.5C 144.073,171.984 141.407,166.984 139.5,161.5 Z"/></g>
<g><path style="opacity:1" fill="#6580a7" d="M 171.5,160.5 C 172.78,166.326 173.78,172.326 174.5,178.5C 171.898,180.142 169.231,181.808 166.5,183.5C 166.167,184.333 165.833,185.167 165.5,186C 166.548,190.789 167.215,195.622 167.5,200.5C 165.677,201.227 163.843,201.561 162,201.5C 160.198,200.211 159.031,198.544 158.5,196.5C 160.993,197.774 163.659,198.44 166.5,198.5C 165.908,195.873 165.575,193.206 165.5,190.5C 161.971,190.557 158.971,191.557 156.5,193.5C 155.5,192.167 154.5,192.167 153.5,193.5C 151.496,187.822 149.496,182.155 147.5,176.5C 148.222,176.918 148.722,177.584 149,178.5C 150.405,177.269 151.571,175.936 152.5,174.5C 152.842,175.338 153.508,175.672 154.5,175.5C 153.312,176.364 152.145,177.364 151,178.5C 150.251,179.635 150.417,180.635 151.5,181.5C 155.141,179.19 158.474,176.523 161.5,173.5C 161.459,177.243 162.126,177.41 163.5,174C 167.459,174.349 170.126,172.683 171.5,169C 169.956,168.71 168.623,168.044 167.5,167C 168.025,166.308 168.692,165.808 169.5,165.5C 169.833,166.167 170.167,166.833 170.5,167.5C 171.474,165.257 171.808,162.924 171.5,160.5 Z"/></g>
<g><path style="opacity:1" fill="#8b7384" d="M 121.5,154.5 C 122.948,161.301 123.948,168.301 124.5,175.5C 122.33,168.797 121.33,161.797 121.5,154.5 Z"/></g>
<g><path style="opacity:1" fill="#e0e0e8" d="M 161.5,173.5 C 158.474,176.523 155.141,179.19 151.5,181.5C 150.417,180.635 150.251,179.635 151,178.5C 152.145,177.364 153.312,176.364 154.5,175.5C 157.731,173.78 160.564,171.447 163,168.5C 162.866,170.189 162.366,171.856 161.5,173.5 Z"/></g>
<g><path style="opacity:1" fill="#9197b8" d="M 210.5,186.5 C 209.61,191.503 208.61,196.503 207.5,201.5C 207.833,202.5 208.167,203.5 208.5,204.5C 212.697,199.585 215.364,193.918 216.5,187.5C 217.285,189.374 217.952,191.374 218.5,193.5C 217.036,198.298 214.369,202.298 210.5,205.5C 209.5,205.833 208.833,206.5 208.5,207.5C 207.883,207.389 207.383,207.056 207,206.5C 206.164,202.147 205.331,197.813 204.5,193.5C 204.108,189.418 203.442,185.418 202.5,181.5C 203.163,179.958 203.83,178.291 204.5,176.5C 206.306,175.141 207.806,175.475 209,177.5C 209.181,180.695 209.681,183.695 210.5,186.5 Z"/></g>
<g><path style="opacity:1" fill="#f9b8d7" d="M 193.5,170.5 C 194.919,171.451 196.585,171.784 198.5,171.5C 199.209,172.404 200.209,172.737 201.5,172.5C 201.963,175.482 202.296,178.482 202.5,181.5C 203.442,185.418 204.108,189.418 204.5,193.5C 198.806,189.57 192.806,188.903 186.5,191.5C 186.586,190.504 186.252,189.671 185.5,189C 183.5,188.667 181.5,188.333 179.5,188C 182.034,183.866 181.034,182.866 176.5,185C 178.983,187.796 178.317,189.963 174.5,191.5C 173.652,193.409 173.318,195.409 173.5,197.5C 171.632,198.263 169.965,199.263 168.5,200.5C 168.167,200.5 167.833,200.5 167.5,200.5C 167.215,195.622 166.548,190.789 165.5,186C 165.833,185.167 166.167,184.333 166.5,183.5C 169.231,181.808 171.898,180.142 174.5,178.5C 175.167,178.167 175.833,177.833 176.5,177.5C 180.559,175.052 184.725,172.719 189,170.5C 189.807,174.449 190.307,174.449 190.5,170.5C 191.5,170.5 192.5,170.5 193.5,170.5 Z"/></g>
<g><path style="opacity:1" fill="#5880ab" d="M 29.5,185.5 C 27.9724,186.309 26.3057,186.976 24.5,187.5C 23.8333,184.167 23.1667,180.833 22.5,177.5C 20.7681,169.919 20.2681,162.253 21,154.5C 21.7113,165.46 24.5447,175.793 29.5,185.5 Z"/></g>
<g><path style="opacity:1" fill="#feeef8" d="M 143.5,181.5 C 142.677,183.455 142.51,185.455 143,187.5C 144.518,188.163 145.685,189.163 146.5,190.5C 143.384,188.741 140.05,187.407 136.5,186.5C 133.853,188.403 132.519,191.07 132.5,194.5C 130.049,191.26 128.382,187.593 127.5,183.5C 128.228,181.265 129.561,179.432 131.5,178C 135.662,178.216 139.662,179.383 143.5,181.5 Z"/></g>
<g><path style="opacity:1" fill="#c395b5" d="M 109.5,146.5 C 110.822,154.361 112.155,162.361 113.5,170.5C 113.392,171.442 113.059,172.275 112.5,173C 116.403,179.321 120.403,185.654 124.5,192C 123.934,192.995 123.267,193.828 122.5,194.5C 117.74,190.661 114.74,185.661 113.5,179.5C 109.186,176.185 106.519,171.851 105.5,166.5C 107.099,168.604 108.932,170.604 111,172.5C 111.6,169.905 111.1,167.571 109.5,165.5C 109.5,159.167 109.5,152.833 109.5,146.5 Z"/></g>
<g><path style="opacity:1" fill="#fcbdd5" d="M 11.5,185.5 C 13.5102,192.845 16.5102,199.845 20.5,206.5C 21.3901,211.724 24.3901,215.057 29.5,216.5C 31.0038,220.35 33.3371,223.683 36.5,226.5C 39.9343,229.281 43.6009,231.614 47.5,233.5C 47.5,234.167 47.5,234.833 47.5,235.5C 42.8544,239.479 38.521,243.812 34.5,248.5C 32.0846,249.305 29.7513,250.305 27.5,251.5C 26.3777,250.37 25.0443,249.703 23.5,249.5C 20.5677,248.2 18.2344,246.2 16.5,243.5C 12.8333,239.167 8.83333,235.167 4.5,231.5C 2.60534,230.027 0.938669,228.36 -0.5,226.5C -0.5,216.167 -0.5,205.833 -0.5,195.5C 3.20792,191.79 7.20792,188.457 11.5,185.5 Z"/></g>
<g><path style="opacity:1" fill="#dcdce5" d="M 163.5,184.5 C 164.525,184.897 164.692,185.563 164,186.5C 161.053,189.373 157.887,189.873 154.5,188C 157.718,187.1 160.718,185.933 163.5,184.5 Z"/></g>
<g><path style="opacity:1" fill="#febed5" d="M 146.5,190.5 C 148.822,192.664 151.489,194.331 154.5,195.5C 155.833,199.833 157.167,204.167 158.5,208.5C 147.262,211.81 135.929,214.81 124.5,217.5C 125.559,210.992 127.226,204.658 129.5,198.5C 132.985,200.99 136.318,200.99 139.5,198.5C 137.535,197.708 135.535,197.041 133.5,196.5C 132.702,196.043 132.369,195.376 132.5,194.5C 132.519,191.07 133.853,188.403 136.5,186.5C 140.05,187.407 143.384,188.741 146.5,190.5 Z"/></g>
<g><path style="opacity:1" fill="#839ab9" d="M 29.5,185.5 C 33.9155,193.333 38.5822,201 43.5,208.5C 42.8761,208.917 42.5427,209.584 42.5,210.5C 47.2706,221.569 45.4373,222.903 37,214.5C 35.3015,211.079 33.1348,208.079 30.5,205.5C 27.5292,199.921 25.5292,193.921 24.5,187.5C 26.3057,186.976 27.9724,186.309 29.5,185.5 Z"/></g>
<g><path style="opacity:1" fill="#e2e2e9" d="M 158.5,196.5 C 158.573,194.973 157.906,193.973 156.5,193.5C 158.971,191.557 161.971,190.557 165.5,190.5C 165.575,193.206 165.908,195.873 166.5,198.5C 163.659,198.44 160.993,197.774 158.5,196.5 Z"/></g>
<g><path style="opacity:1" fill="#fadbe5" d="M 204.5,193.5 C 205.331,197.813 206.164,202.147 207,206.5C 207.383,207.056 207.883,207.389 208.5,207.5C 208.802,212.091 209.469,216.591 210.5,221C 209.956,221.717 209.289,222.217 208.5,222.5C 206.263,220.131 203.429,218.798 200,218.5C 191.992,221.089 184.158,224.089 176.5,227.5C 175.454,224.785 175.787,222.118 177.5,219.5C 178.117,219.611 178.617,219.944 179,220.5C 179.085,214.373 180.252,214.04 182.5,219.5C 183.512,217.163 183.345,214.83 182,212.5C 180.697,211.888 179.53,211.554 178.5,211.5C 179.612,209.581 180.946,207.914 182.5,206.5C 184.163,204.562 184.829,202.228 184.5,199.5C 186.04,197.162 186.706,194.495 186.5,191.5C 192.806,188.903 198.806,189.57 204.5,193.5 Z"/></g>
<g><path style="opacity:1" fill="#5b759f" d="M 47.5,181.5 C 53.2331,185.9 59.2331,189.9 65.5,193.5C 64.5,193.5 63.5,193.5 62.5,193.5C 62.2627,194.791 62.596,195.791 63.5,196.5C 63.6332,199.925 62.9665,200.258 61.5,197.5C 55.7735,193.106 51.1068,187.773 47.5,181.5 Z"/></g>
<g><path style="opacity:1" fill="#938fa4" d="M 12.5,158.5 C 13.3299,167.658 13.8299,176.991 14,186.5C 14.0791,182.642 14.7458,178.976 16,175.5C 18.2755,183.49 20.4421,191.49 22.5,199.5C 24.0086,202.678 25.342,206.011 26.5,209.5C 24.7837,207.975 22.7837,206.975 20.5,206.5C 16.5102,199.845 13.5102,192.845 11.5,185.5C 12.4731,183.932 12.6397,182.265 12,180.5C 10.087,182.187 7.92029,182.687 5.5,182C 7.61467,181.443 9.61467,180.609 11.5,179.5C 12.497,172.532 12.8303,165.532 12.5,158.5 Z"/></g>
<g><path style="opacity:1" fill="#c599b8" d="M 63.5,196.5 C 62.596,195.791 62.2627,194.791 62.5,193.5C 63.5,193.5 64.5,193.5 65.5,193.5C 69.0733,195.265 72.74,195.598 76.5,194.5C 75.3984,193.824 74.3984,193.158 73.5,192.5C 77.1431,192.975 80.8098,193.308 84.5,193.5C 94.7715,195.381 99.2715,191.381 98,181.5C 98.6667,182.167 99.3333,182.833 100,183.5C 100.695,189.188 98.8616,194.022 94.5,198C 83.9732,204.437 73.9732,203.603 64.5,195.5C 63.8933,195.624 63.56,195.957 63.5,196.5 Z"/></g>
<g><path style="opacity:1" fill="#fcfcfc" d="M 255.5,186.5 C 255.5,195.5 255.5,204.5 255.5,213.5C 253.473,213.338 251.473,213.505 249.5,214C 248.944,214.383 248.611,214.883 248.5,215.5C 245.5,216.5 243.5,218.5 242.5,221.5C 241.094,221.973 240.427,222.973 240.5,224.5C 238.75,225.659 237.75,227.326 237.5,229.5C 235.412,231.336 234.079,233.669 233.5,236.5C 232.662,236.842 232.328,237.508 232.5,238.5C 230.127,240.579 228.794,243.246 228.5,246.5C 226.796,249.256 225.463,252.256 224.5,255.5C 215.833,255.5 207.167,255.5 198.5,255.5C 195.331,252.315 194.664,248.649 196.5,244.5C 198.211,240.119 198.877,235.453 198.5,230.5C 199.97,228.849 201.303,227.015 202.5,225C 204.641,224.427 206.641,223.594 208.5,222.5C 209.289,222.217 209.956,221.717 210.5,221C 209.469,216.591 208.802,212.091 208.5,207.5C 208.833,206.5 209.5,205.833 210.5,205.5C 225.195,198.316 240.195,191.982 255.5,186.5 Z"/></g>
<g><path style="opacity:1" fill="#d28caf" d="M 184.5,199.5 C 184.829,202.228 184.163,204.562 182.5,206.5C 182.421,205.07 182.754,203.736 183.5,202.5C 182.311,201.571 180.978,201.238 179.5,201.5C 179.969,198.692 181.303,196.358 183.5,194.5C 184.452,196.045 184.785,197.712 184.5,199.5 Z"/></g>
<g><path style="opacity:1" fill="#f3b8d1" d="M 22.5,199.5 C 22.2252,201.842 21.3919,201.842 20,199.5C 18.4868,196.976 17.8201,194.309 18,191.5C 19.2742,194.391 20.7742,197.058 22.5,199.5 Z"/></g>
<g><path style="opacity:1" fill="#f0ccd9" d="M 173.5,197.5 C 174.415,199.754 175.748,201.754 177.5,203.5C 175.059,205.926 173.059,208.593 171.5,211.5C 170.778,211.918 170.278,212.584 170,213.5C 169.814,210.964 169.314,208.631 168.5,206.5C 168.5,204.5 168.5,202.5 168.5,200.5C 169.965,199.263 171.632,198.263 173.5,197.5 Z"/></g>
<g><path style="opacity:1" fill="#8686a8" d="M 156.5,193.5 C 157.906,193.973 158.573,194.973 158.5,196.5C 159.031,198.544 160.198,200.211 162,201.5C 163.843,201.561 165.677,201.227 167.5,200.5C 167.833,200.5 168.167,200.5 168.5,200.5C 168.5,202.5 168.5,204.5 168.5,206.5C 167.454,210.924 166.121,215.257 164.5,219.5C 163.781,221.764 163.448,224.097 163.5,226.5C 162.191,222.914 160.858,219.248 159.5,215.5C 159.552,213.097 159.219,210.764 158.5,208.5C 157.167,204.167 155.833,199.833 154.5,195.5C 154.167,194.833 153.833,194.167 153.5,193.5C 154.5,192.167 155.5,192.167 156.5,193.5 Z"/></g>
<g><path style="opacity:1" fill="#fbe7e7" d="M 186.5,191.5 C 186.706,194.495 186.04,197.162 184.5,199.5C 184.785,197.712 184.452,196.045 183.5,194.5C 181.303,196.358 179.969,198.692 179.5,201.5C 180.978,201.238 182.311,201.571 183.5,202.5C 182.754,203.736 182.421,205.07 182.5,206.5C 180.946,207.914 179.612,209.581 178.5,211.5C 179.53,211.554 180.697,211.888 182,212.5C 183.345,214.83 183.512,217.163 182.5,219.5C 180.252,214.04 179.085,214.373 179,220.5C 178.617,219.944 178.117,219.611 177.5,219.5C 177.649,218.448 177.483,217.448 177,216.5C 176.167,219 175.333,221.5 174.5,224C 174.899,225.728 175.566,227.228 176.5,228.5C 176.5,229.167 176.5,229.833 176.5,230.5C 176.549,238.25 175.882,245.916 174.5,253.5C 171.66,252.759 169.66,251.092 168.5,248.5C 167.274,242.145 165.941,235.812 164.5,229.5C 164.443,228.391 164.11,227.391 163.5,226.5C 163.448,224.097 163.781,221.764 164.5,219.5C 165.265,220.66 166.265,221.66 167.5,222.5C 169.235,218.961 170.568,215.294 171.5,211.5C 173.059,208.593 175.059,205.926 177.5,203.5C 175.748,201.754 174.415,199.754 173.5,197.5C 173.318,195.409 173.652,193.409 174.5,191.5C 178.317,189.963 178.983,187.796 176.5,185C 181.034,182.866 182.034,183.866 179.5,188C 181.5,188.333 183.5,188.667 185.5,189C 186.252,189.671 186.586,190.504 186.5,191.5 Z"/></g>
<g><path style="opacity:1" fill="#bd90b1" d="M 20.5,206.5 C 22.7837,206.975 24.7837,207.975 26.5,209.5C 27.2632,211.368 28.2632,213.035 29.5,214.5C 29.5,215.167 29.5,215.833 29.5,216.5C 24.3901,215.057 21.3901,211.724 20.5,206.5 Z"/></g>
<g><path style="opacity:1" fill="#caa0c1" d="M 168.5,206.5 C 169.314,208.631 169.814,210.964 170,213.5C 170.278,212.584 170.778,211.918 171.5,211.5C 170.568,215.294 169.235,218.961 167.5,222.5C 166.265,221.66 165.265,220.66 164.5,219.5C 166.121,215.257 167.454,210.924 168.5,206.5 Z"/></g>
<g><path style="opacity:1" fill="#cbb3c7" d="M 34.5,215.5 C 37.206,221.046 41.206,225.546 46.5,229C 45.5,229.333 44.5,229.667 43.5,230C 45.5444,230.498 46.8777,231.665 47.5,233.5C 43.6009,231.614 39.9343,229.281 36.5,226.5C 33.3371,223.683 31.0038,220.35 29.5,216.5C 29.5,215.833 29.5,215.167 29.5,214.5C 29.7352,213.903 30.2352,213.57 31,213.5C 32.3026,213.978 33.4693,214.645 34.5,215.5 Z"/></g>
<g><path style="opacity:1" fill="#fef0f9" d="M 122.5,195.5 C 124.713,196.773 127.046,197.773 129.5,198.5C 127.226,204.658 125.559,210.992 124.5,217.5C 135.929,214.81 147.262,211.81 158.5,208.5C 159.219,210.764 159.552,213.097 159.5,215.5C 152.557,217.486 145.557,219.319 138.5,221C 137.196,221.804 136.529,222.971 136.5,224.5C 138.555,229.609 137.055,231.276 132,229.5C 131.727,227.671 130.893,226.171 129.5,225C 125.167,224.667 120.833,224.333 116.5,224C 115.409,221.936 115.242,219.769 116,217.5C 117.87,210.06 120.036,202.727 122.5,195.5 Z"/></g>
<g><path style="opacity:1" fill="#667093" d="M 30.5,205.5 C 33.1348,208.079 35.3015,211.079 37,214.5C 45.4373,222.903 47.2706,221.569 42.5,210.5C 42.5427,209.584 42.8761,208.917 43.5,208.5C 46.5013,215.838 49.5013,223.172 52.5,230.5C 51.8153,232.414 51.3153,234.414 51,236.5C 50.0471,234.627 48.8804,234.294 47.5,235.5C 47.5,234.833 47.5,234.167 47.5,233.5C 46.8777,231.665 45.5444,230.498 43.5,230C 44.5,229.667 45.5,229.333 46.5,229C 41.206,225.546 37.206,221.046 34.5,215.5C 33.1667,212.167 31.8333,208.833 30.5,205.5 Z"/></g>
<g><path style="opacity:1" fill="#807ba0" d="M 95.5,216.5 C 96.8734,216.343 98.2068,216.51 99.5,217C 101.78,220.947 104.447,224.613 107.5,228C 104.021,227.247 101.021,225.414 98.5,222.5C 96.585,220.929 95.585,218.929 95.5,216.5 Z"/></g>
<g><path style="opacity:1" fill="#b6a7b6" d="M 177.5,219.5 C 175.787,222.118 175.454,224.785 176.5,227.5C 176.5,227.833 176.5,228.167 176.5,228.5C 175.566,227.228 174.899,225.728 174.5,224C 175.333,221.5 176.167,219 177,216.5C 177.483,217.448 177.649,218.448 177.5,219.5 Z"/></g>
<g><path style="opacity:1" fill="#d795c4" d="M 208.5,222.5 C 206.641,223.594 204.641,224.427 202.5,225C 201.303,227.015 199.97,228.849 198.5,230.5C 194.722,228.878 191.722,229.878 189.5,233.5C 189.53,232.503 189.03,231.836 188,231.5C 184.974,232.872 181.807,233.538 178.5,233.5C 178.768,235.099 178.434,236.432 177.5,237.5C 177.802,234.941 177.468,232.607 176.5,230.5C 176.5,229.833 176.5,229.167 176.5,228.5C 176.5,228.167 176.5,227.833 176.5,227.5C 184.158,224.089 191.992,221.089 200,218.5C 203.429,218.798 206.263,220.131 208.5,222.5 Z"/></g>
<g><path style="opacity:1" fill="#917892" d="M 248.5,215.5 C 246.833,217.833 244.833,219.833 242.5,221.5C 243.5,218.5 245.5,216.5 248.5,215.5 Z"/></g>
<g><path style="opacity:1" fill="#816986" d="M 242.5,221.5 C 242.573,223.027 241.906,224.027 240.5,224.5C 240.427,222.973 241.094,221.973 242.5,221.5 Z"/></g>
<g><path style="opacity:1" fill="#e5cde0" d="M 66.5,224.5 C 68.8861,229.83 72.3861,234.497 77,238.5C 77.6917,239.437 77.525,240.103 76.5,240.5C 68.7049,239.269 62.0382,235.936 56.5,230.5C 56.2606,228.533 56.5939,226.699 57.5,225C 60.3945,223.433 63.3945,223.267 66.5,224.5 Z"/></g>
<g><path style="opacity:0.999" fill="#eaeaf0" d="M -0.5,226.5 C 0.938669,228.36 2.60534,230.027 4.5,231.5C 7.5,236.5 11.5,240.5 16.5,243.5C 18.2344,246.2 20.5677,248.2 23.5,249.5C 25.4133,251.291 27.08,253.291 28.5,255.5C 18.8333,255.5 9.16667,255.5 -0.5,255.5C -0.5,245.833 -0.5,236.167 -0.5,226.5 Z"/></g>
<g><path style="opacity:1" fill="#f5dede" d="M 198.5,230.5 C 197.599,231.29 196.932,232.29 196.5,233.5C 195.009,233.901 193.342,234.068 191.5,234C 190.123,241.342 189.456,241.176 189.5,233.5C 191.722,229.878 194.722,228.878 198.5,230.5 Z"/></g>
<g><path style="opacity:1" fill="#c2bacd" d="M 90.5,235.5 C 88.8967,235.688 87.5634,235.188 86.5,234C 88.3146,233.243 89.9812,232.41 91.5,231.5C 93.9015,230.254 95.4015,228.254 96,225.5C 98.105,228.011 97.9383,230.344 95.5,232.5C 93.6036,233.275 91.937,234.275 90.5,235.5 Z"/></g>
<g><path style="opacity:1" fill="#96869d" d="M 237.5,229.5 C 236.921,232.331 235.588,234.664 233.5,236.5C 234.079,233.669 235.412,231.336 237.5,229.5 Z"/></g>
<g><path style="opacity:1" fill="#fae0e5" d="M 255.5,213.5 C 255.5,227.5 255.5,241.5 255.5,255.5C 245.167,255.5 234.833,255.5 224.5,255.5C 225.463,252.256 226.796,249.256 228.5,246.5C 230.341,244.151 231.674,241.485 232.5,238.5C 232.328,237.508 232.662,236.842 233.5,236.5C 235.588,234.664 236.921,232.331 237.5,229.5C 237.75,227.326 238.75,225.659 240.5,224.5C 241.906,224.027 242.573,223.027 242.5,221.5C 244.833,219.833 246.833,217.833 248.5,215.5C 248.611,214.883 248.944,214.383 249.5,214C 251.473,213.505 253.473,213.338 255.5,213.5 Z"/></g>
<g><path style="opacity:1" fill="#404975" d="M 164.5,229.5 C 165.941,235.812 167.274,242.145 168.5,248.5C 168.674,250.861 169.007,253.194 169.5,255.5C 147.833,255.5 126.167,255.5 104.5,255.5C 104.336,252.813 104.503,250.146 105,247.5C 105.995,246.934 106.828,246.267 107.5,245.5C 111.26,243.968 114.76,241.968 118,239.5C 119.167,240.667 120.333,241.833 121.5,243C 127.891,243.758 134.224,243.424 140.5,242C 148.968,238.601 156.968,234.434 164.5,229.5 Z"/></g>
<g><path style="opacity:1" fill="#aa9bb1" d="M 4.5,231.5 C 8.83333,235.167 12.8333,239.167 16.5,243.5C 11.5,240.5 7.5,236.5 4.5,231.5 Z"/></g>
<g><path style="opacity:1" fill="#e1abd0" d="M 189.5,233.5 C 189.456,241.176 190.123,241.342 191.5,234C 193.342,234.068 195.009,233.901 196.5,233.5C 197.338,233.842 197.672,234.508 197.5,235.5C 194.84,236.973 192.84,239.14 191.5,242C 187.346,242.414 183.679,243.914 180.5,246.5C 179.683,243.381 178.683,240.381 177.5,237.5C 178.434,236.432 178.768,235.099 178.5,233.5C 181.807,233.538 184.974,232.872 188,231.5C 189.03,231.836 189.53,232.503 189.5,233.5 Z"/></g>
<g><path style="opacity:1" fill="#6f799f" d="M 91.5,231.5 C 89.9812,232.41 88.3146,233.243 86.5,234C 87.5634,235.188 88.8967,235.688 90.5,235.5C 90.634,237.292 90.3007,238.958 89.5,240.5C 86.1742,240.033 85.8409,238.866 88.5,237C 86.765,236.349 85.0983,236.515 83.5,237.5C 82.086,236.376 80.586,235.376 79,234.5C 78.3083,233.563 78.475,232.897 79.5,232.5C 83.5341,232.495 87.5341,232.162 91.5,231.5 Z"/></g>
<g><path style="opacity:1" fill="#c8bbcf" d="M 63.5,196.5 C 66.3005,209.547 71.6338,221.547 79.5,232.5C 78.475,232.897 78.3083,233.563 79,234.5C 80.586,235.376 82.086,236.376 83.5,237.5C 85.0983,236.515 86.765,236.349 88.5,237C 85.8409,238.866 86.1742,240.033 89.5,240.5C 91.8185,240.992 93.8185,241.992 95.5,243.5C 97.631,244.314 99.9644,244.814 102.5,245C 99.5184,245.498 96.5184,245.665 93.5,245.5C 92.5084,245.672 91.8417,245.338 91.5,244.5C 90.1336,242.649 88.467,242.316 86.5,243.5C 83.1581,242.135 79.8248,241.135 76.5,240.5C 77.525,240.103 77.6917,239.437 77,238.5C 72.3861,234.497 68.8861,229.83 66.5,224.5C 61.342,216.54 58.842,207.873 59,198.5C 59.6708,197.748 60.5041,197.414 61.5,197.5C 62.9665,200.258 63.6332,199.925 63.5,196.5 Z"/></g>
<g><path style="opacity:1" fill="#938aad" d="M 52.5,230.5 C 54.2387,233.635 56.2387,236.635 58.5,239.5C 56.1641,238.657 53.8307,238.157 51.5,238C 50.8333,241 50.1667,244 49.5,247C 43.6376,247.549 37.9709,248.882 32.5,251C 30.8588,252.129 29.8588,253.629 29.5,255.5C 29.1667,255.5 28.8333,255.5 28.5,255.5C 27.08,253.291 25.4133,251.291 23.5,249.5C 25.0443,249.703 26.3777,250.37 27.5,251.5C 29.7513,250.305 32.0846,249.305 34.5,248.5C 38.521,243.812 42.8544,239.479 47.5,235.5C 48.8804,234.294 50.0471,234.627 51,236.5C 51.3153,234.414 51.8153,232.414 52.5,230.5 Z"/></g>
<g><path style="opacity:1" fill="#fce6e4" d="M 197.5,235.5 C 197.037,238.482 196.704,241.482 196.5,244.5C 195.59,246.019 194.757,247.685 194,249.5C 191.156,251.159 188.656,253.159 186.5,255.5C 183.167,255.5 179.833,255.5 176.5,255.5C 178.582,252.848 179.915,249.848 180.5,246.5C 183.679,243.914 187.346,242.414 191.5,242C 192.84,239.14 194.84,236.973 197.5,235.5 Z"/></g>
<g><path style="opacity:1" fill="#fbbbd4" d="M 58.5,239.5 C 60.3356,241.588 62.6689,242.921 65.5,243.5C 65.5106,245.017 66.1772,246.184 67.5,247C 69.5,248 71.5,249 73.5,250C 81.1832,249.999 88.8498,249.499 96.5,248.5C 98.7457,249.455 101.079,250.122 103.5,250.5C 103.5,252.167 103.5,253.833 103.5,255.5C 78.8333,255.5 54.1667,255.5 29.5,255.5C 29.8588,253.629 30.8588,252.129 32.5,251C 37.9709,248.882 43.6376,247.549 49.5,247C 50.1667,244 50.8333,241 51.5,238C 53.8307,238.157 56.1641,238.657 58.5,239.5 Z"/></g>
<g><path style="opacity:1" fill="#938a9d" d="M 198.5,230.5 C 198.877,235.453 198.211,240.119 196.5,244.5C 196.704,241.482 197.037,238.482 197.5,235.5C 197.672,234.508 197.338,233.842 196.5,233.5C 196.932,232.29 197.599,231.29 198.5,230.5 Z"/></g>
<g><path style="opacity:1" fill="#957ba0" d="M 56.5,230.5 C 62.0382,235.936 68.7049,239.269 76.5,240.5C 79.8248,241.135 83.1581,242.135 86.5,243.5C 88.467,242.316 90.1336,242.649 91.5,244.5C 82.9537,247.355 74.6204,247.022 66.5,243.5C 63.2392,239.722 59.4059,235.722 55,231.5C 54.3947,229.365 54.8947,229.031 56.5,230.5 Z"/></g>
<g><path style="opacity:1" fill="#908895" d="M 232.5,238.5 C 231.674,241.485 230.341,244.151 228.5,246.5C 228.794,243.246 230.127,240.579 232.5,238.5 Z"/></g>
<g><path style="opacity:1" fill="#f5d0e2" d="M 176.5,230.5 C 177.468,232.607 177.802,234.941 177.5,237.5C 178.683,240.381 179.683,243.381 180.5,246.5C 179.915,249.848 178.582,252.848 176.5,255.5C 176.167,255.5 175.833,255.5 175.5,255.5C 175.167,254.833 174.833,254.167 174.5,253.5C 175.882,245.916 176.549,238.25 176.5,230.5 Z"/></g>
<g><path style="opacity:1" fill="#9974a7" d="M 107.5,245.5 C 106.828,246.267 105.995,246.934 105,247.5C 104.503,250.146 104.336,252.813 104.5,255.5C 104.167,255.5 103.833,255.5 103.5,255.5C 103.5,253.833 103.5,252.167 103.5,250.5C 101.079,250.122 98.7457,249.455 96.5,248.5C 95.6935,247.272 94.6935,246.272 93.5,245.5C 96.5184,245.665 99.5184,245.498 102.5,245C 99.9644,244.814 97.631,244.314 95.5,243.5C 97.5922,243.439 99.0922,242.439 100,240.5C 100.333,237.5 100.667,234.5 101,231.5C 102.165,235.319 103.332,239.152 104.5,243C 105.13,244.31 106.13,245.144 107.5,245.5 Z"/></g>
<g><path style="opacity:1" fill="#d09ebf" d="M 65.5,243.5 C 65.8333,243.5 66.1667,243.5 66.5,243.5C 74.6204,247.022 82.9537,247.355 91.5,244.5C 91.8417,245.338 92.5084,245.672 93.5,245.5C 94.6935,246.272 95.6935,247.272 96.5,248.5C 88.8498,249.499 81.1832,249.999 73.5,250C 71.5,249 69.5,248 67.5,247C 66.1772,246.184 65.5106,245.017 65.5,243.5 Z"/></g>
<g><path style="opacity:1" fill="#7b7ea0" d="M 196.5,244.5 C 194.664,248.649 195.331,252.315 198.5,255.5C 194.5,255.5 190.5,255.5 186.5,255.5C 188.656,253.159 191.156,251.159 194,249.5C 194.757,247.685 195.59,246.019 196.5,244.5 Z"/></g>
<g><path style="opacity:1" fill="#89729a" d="M 168.5,248.5 C 169.66,251.092 171.66,252.759 174.5,253.5C 174.833,254.167 175.167,254.833 175.5,255.5C 173.5,255.5 171.5,255.5 169.5,255.5C 169.007,253.194 168.674,250.861 168.5,248.5 Z"/></g>
</svg>
